<svg width="37" height="36" viewBox="0 0 37 36" fill="none" xmlns="http://www.w3.org/2000/svg">
<path d="M18.5 0C8.2826 0 0 8.05875 0 18C0 27.9412 8.2826 36 18.5 36C28.7174 36 37 27.9412 37 18C37 8.05875 28.7174 0 18.5 0ZM26.0253 14.745C26.033 14.8987 26.0349 15.0525 26.0349 15.2025C26.0349 19.89 22.3715 25.2919 15.6691 25.2919C13.6886 25.2951 11.7494 24.7416 10.0844 23.6981C10.3677 23.7319 10.6587 23.745 10.9535 23.745C12.6609 23.745 14.2315 23.1806 15.4783 22.2281C14.7185 22.2136 13.9823 21.9688 13.3722 21.5278C12.7622 21.0869 12.3088 20.4717 12.0751 19.7681C12.6208 19.8691 13.1829 19.8479 13.7189 19.7062C12.8942 19.544 12.1526 19.1092 11.6197 18.4756C11.0869 17.842 10.7957 17.0486 10.7955 16.23V16.1869C11.2869 16.4513 11.8496 16.6125 12.447 16.6313C11.6739 16.1305 11.1266 15.3613 10.917 14.4809C10.7075 13.6005 10.8515 12.6755 11.3197 11.895C12.235 12.99 13.3764 13.8858 14.6701 14.5243C15.9637 15.1629 17.3808 15.53 18.8295 15.6019C18.6453 14.8412 18.7246 14.0426 19.055 13.3303C19.3854 12.618 19.9484 12.0319 20.6565 11.663C21.3646 11.2941 22.1782 11.1632 22.9706 11.2906C23.7631 11.418 24.4901 11.7966 25.0386 12.3675C25.8541 12.2105 26.6361 11.9195 27.3511 11.5069C27.0793 12.3284 26.5103 13.026 25.7497 13.47C26.472 13.3853 27.1774 13.1964 27.8425 12.9094C27.354 13.6217 26.7385 14.2433 26.0253 14.745Z" fill="white"/>
</svg>
