<svg width="39" height="38" viewBox="0 0 39 38" fill="none" xmlns="http://www.w3.org/2000/svg">
<path d="M25.35 19C25.35 20.5117 24.7337 21.9616 23.6366 23.0305C22.5395 24.0995 21.0515 24.7 19.5 24.7C17.9485 24.7 16.4605 24.0995 15.3635 23.0305C14.2664 21.9616 13.65 20.5117 13.65 19C13.65 18.6751 13.6851 18.3578 13.7456 18.05H11.7V25.6443C11.7 26.1725 12.1388 26.6 12.6809 26.6H26.3211C26.5809 26.5995 26.8299 26.4986 27.0134 26.3194C27.197 26.1402 27.3 25.8974 27.3 25.6443V18.05H25.2545C25.3149 18.3578 25.35 18.6751 25.35 19ZM19.5 22.8C20.0123 22.7999 20.5196 22.7014 20.9928 22.5103C21.466 22.3192 21.896 22.0391 22.2582 21.6861C22.6203 21.333 22.9075 20.9139 23.1035 20.4527C23.2994 19.9915 23.4002 19.4973 23.4 18.9981C23.3999 18.499 23.2989 18.0047 23.1027 17.5436C22.9066 17.0825 22.6191 16.6636 22.2568 16.3107C21.8944 15.9578 21.4643 15.678 20.991 15.4871C20.5177 15.2962 20.0104 15.198 19.4981 15.1981C18.4635 15.1984 17.4714 15.5991 16.74 16.3121C16.0086 17.025 15.5978 17.9919 15.5981 19C15.5983 20.0081 16.0096 20.9748 16.7413 21.6874C17.4731 22.4 18.4654 22.8003 19.5 22.8ZM24.18 15.01H26.5181C26.6734 15.01 26.8224 14.95 26.9324 14.8432C27.0424 14.7363 27.1045 14.5914 27.105 14.44V12.1619C27.105 12.0102 27.0432 11.8648 26.9331 11.7575C26.823 11.6503 26.6738 11.59 26.5181 11.59H24.18C24.0244 11.59 23.8751 11.6503 23.765 11.7575C23.6549 11.8648 23.5931 12.0102 23.5931 12.1619V14.44C23.595 14.7535 23.8583 15.01 24.18 15.01ZM19.5 0.76001C14.5352 0.76001 9.77367 2.68172 6.26299 6.10238C2.75231 9.52305 0.780029 14.1625 0.780029 19C0.780029 23.8376 2.75231 28.477 6.26299 31.8976C9.77367 35.3183 14.5352 37.24 19.5 37.24C21.9584 37.24 24.3927 36.7682 26.6639 35.8516C28.9351 34.9349 30.9988 33.5914 32.7371 31.8976C34.4754 30.2039 35.8543 28.1931 36.7951 25.9802C37.7358 23.7672 38.22 21.3953 38.22 19C38.22 16.6047 37.7358 14.2328 36.7951 12.0199C35.8543 9.80689 34.4754 7.79612 32.7371 6.10238C30.9988 4.40864 28.9351 3.06509 26.6639 2.14845C24.3927 1.2318 21.9584 0.76001 19.5 0.76001ZM29.25 26.3891C29.25 27.55 28.275 28.5 27.0836 28.5H11.9165C10.725 28.5 9.75003 27.55 9.75003 26.3891V11.6109C9.75003 10.45 10.725 9.50001 11.9165 9.50001H27.0836C28.275 9.50001 29.25 10.45 29.25 11.6109V26.3891Z" fill="white"/>
</svg>
