<svg width="274" height="67" viewBox="0 0 274 67" fill="none" xmlns="http://www.w3.org/2000/svg">
<path d="M11.4706 46C9.12599 46 6.96172 45.7173 4.97781 45.152C3.02997 44.5867 1.3707 43.7741 0 42.7141L1.89373 38.1032C4.70728 40.1172 7.93564 41.1241 11.5788 41.1241C13.1299 41.1241 14.3022 40.8768 15.0958 40.3821C15.9254 39.8875 16.3402 39.1808 16.3402 38.2622C16.3402 37.4849 16.0516 36.8842 15.4745 36.4603C14.9334 36.0363 13.9415 35.6476 12.4986 35.2943L8.1701 34.3403C5.71727 33.8103 3.89568 32.9447 2.70533 31.7434C1.51499 30.5421 0.919813 28.9874 0.919813 27.0795C0.919813 25.4895 1.3707 24.0939 2.27248 22.8926C3.21033 21.656 4.49085 20.702 6.11405 20.0307C7.77332 19.3594 9.68509 19.0237 11.8494 19.0237C13.7251 19.0237 15.5286 19.3064 17.26 19.8717C19.0275 20.437 20.5786 21.232 21.9132 22.2566L20.0195 26.7615C17.2781 24.8182 14.5367 23.8466 11.7952 23.8466C10.3163 23.8466 9.16206 24.1116 8.33242 24.6416C7.50279 25.1715 7.08797 25.9135 7.08797 26.8675C7.08797 27.5742 7.34047 28.1571 7.84546 28.6165C8.38653 29.0758 9.2342 29.4291 10.3885 29.6764L14.8793 30.6834C17.5125 31.2487 19.4423 32.1497 20.6687 33.3863C21.8952 34.5876 22.5084 36.1776 22.5084 38.1562C22.5084 40.5588 21.5164 42.4668 19.5325 43.8801C17.5486 45.2934 14.8613 46 11.4706 46Z" fill="white"/>
<path d="M39.3545 19.0237C43.0699 19.0237 45.8293 19.907 47.6329 21.6736C49.4364 23.4403 50.3382 26.1609 50.3382 29.8354V45.576H43.8995V41.6011C43.2863 42.9791 42.3124 44.0567 40.9778 44.834C39.6792 45.6113 38.1642 46 36.4328 46C34.6653 46 33.0601 45.6467 31.6173 44.94C30.1745 44.2334 29.0382 43.2617 28.2086 42.0251C27.3789 40.7885 26.9641 39.4105 26.9641 37.8912C26.9641 35.9833 27.4511 34.4816 28.425 33.3863C29.435 32.291 31.0582 31.496 33.2946 31.0014C35.531 30.5067 38.6151 30.2594 42.5468 30.2594H43.8995V29.0404C43.8995 27.2738 43.5027 26.0019 42.7092 25.2245C41.9517 24.4472 40.6711 24.0586 38.8676 24.0586C37.4608 24.0586 35.9819 24.3059 34.4308 24.8006C32.9159 25.2599 31.4189 25.9135 29.94 26.7615L28.0463 22.2036C29.5252 21.285 31.3107 20.5253 33.4028 19.9247C35.4949 19.324 37.4789 19.0237 39.3545 19.0237ZM37.7855 41.2301C39.589 41.2301 41.0499 40.6471 42.1681 39.4812C43.3224 38.2799 43.8995 36.7429 43.8995 34.8703V33.7573H42.9256C40.5088 33.7573 38.6331 33.8633 37.2985 34.0753C35.9639 34.2873 35.008 34.6583 34.4308 35.1883C33.8537 35.7183 33.5651 36.4426 33.5651 37.3612C33.5651 38.4919 33.9619 39.4282 34.7555 40.1702C35.549 40.8768 36.559 41.2301 37.7855 41.2301Z" fill="white"/>
<path d="M65.8148 19.6597H72.7946V24.6416H65.8148V45.576H59.0515V24.6416H53.9655V19.6597H59.0515C59.0515 15.9498 60.0254 13.1585 61.9732 11.2859C63.9572 9.4133 67.0232 8.37099 71.1714 8.159L73.8226 8L74.2554 12.9289L71.7124 13.0349C69.5842 13.1409 68.0693 13.6179 67.1675 14.4658C66.2657 15.2785 65.8148 16.6034 65.8148 18.4407V19.6597Z" fill="white"/>
<path d="M99.5511 33.8103H81.5336C81.7501 36.2129 82.4895 37.9972 83.752 39.1632C85.0145 40.3291 86.8181 40.9121 89.1627 40.9121C92.0844 40.9121 94.7537 39.9935 97.1705 38.1562L99.1183 42.7141C97.8919 43.7034 96.3408 44.4984 94.4651 45.099C92.6255 45.6997 90.7678 46 88.8921 46C84.5636 46 81.1369 44.7987 78.6119 42.3961C76.123 39.9935 74.8785 36.7076 74.8785 32.5384C74.8785 29.8884 75.4196 27.5388 76.5017 25.4895C77.5839 23.4403 79.0988 21.8503 81.0467 20.7197C83.0306 19.589 85.267 19.0237 87.7559 19.0237C91.3991 19.0237 94.2667 20.172 96.3589 22.4686C98.4871 24.7652 99.5511 27.9275 99.5511 31.9554V33.8103ZM87.9182 23.6876C86.1147 23.6876 84.6538 24.2529 83.5356 25.3835C82.4535 26.5142 81.7861 28.1395 81.5336 30.2594H93.7617C93.6896 28.1041 93.1485 26.4788 92.1385 25.3835C91.1285 24.2529 89.7218 23.6876 87.9182 23.6876Z" fill="white"/>
<path d="M146.772 23.8466V29.3584H127.239V45.576H120.368V8.21199H127.239V23.8466H146.772Z" fill="white"/>
<path d="M172.56 19.0237C176.276 19.0237 179.035 19.907 180.839 21.6736C182.642 23.4403 183.544 26.1609 183.544 29.8354V45.576H177.105V41.6011C176.492 42.9791 175.518 44.0567 174.184 44.834C172.885 45.6113 171.37 46 169.639 46C167.871 46 166.266 45.6467 164.823 44.94C163.38 44.2334 162.244 43.2617 161.414 42.0251C160.585 40.7885 160.17 39.4105 160.17 37.8912C160.17 35.9833 160.657 34.4816 161.631 33.3863C162.641 32.291 164.264 31.496 166.501 31.0014C168.737 30.5067 171.821 30.2594 175.753 30.2594H177.105V29.0404C177.105 27.2738 176.709 26.0019 175.915 25.2245C175.158 24.4472 173.877 24.0586 172.073 24.0586C170.667 24.0586 169.188 24.3059 167.637 24.8006C166.122 25.2599 164.625 25.9135 163.146 26.7615L161.252 22.2036C162.731 21.285 164.517 20.5253 166.609 19.9247C168.701 19.324 170.685 19.0237 172.56 19.0237ZM170.991 41.2301C172.795 41.2301 174.256 40.6471 175.374 39.4812C176.528 38.2799 177.105 36.7429 177.105 34.8703V33.7573H176.131C173.715 33.7573 171.839 33.8633 170.504 34.0753C169.17 34.2873 168.214 34.6583 167.637 35.1883C167.06 35.7183 166.771 36.4426 166.771 37.3612C166.771 38.4919 167.168 39.4282 167.961 40.1702C168.755 40.8768 169.765 41.2301 170.991 41.2301Z" fill="white"/>
<path d="M215.631 19.7127L204.053 45.576H198.155L186.684 19.7127H193.826L201.293 37.9972L208.976 19.7127H215.631Z" fill="white"/>
<path d="M241.687 33.8103H223.669C223.886 36.2129 224.625 37.9972 225.888 39.1632C227.15 40.3291 228.954 40.9121 231.298 40.9121C234.22 40.9121 236.889 39.9935 239.306 38.1562L241.254 42.7141C240.027 43.7034 238.476 44.4984 236.601 45.099C234.761 45.6997 232.903 46 231.028 46C226.699 46 223.272 44.7987 220.747 42.3961C218.259 39.9935 217.014 36.7076 217.014 32.5384C217.014 29.8884 217.555 27.5388 218.637 25.4895C219.719 23.4403 221.234 21.8503 223.182 20.7197C225.166 19.589 227.403 19.0237 229.892 19.0237C233.535 19.0237 236.402 20.172 238.494 22.4686C240.623 24.7652 241.687 27.9275 241.687 31.9554V33.8103ZM230.054 23.6876C228.25 23.6876 226.789 24.2529 225.671 25.3835C224.589 26.5142 223.922 28.1395 223.669 30.2594H235.897C235.825 28.1041 235.284 26.4788 234.274 25.3835C233.264 24.2529 231.857 23.6876 230.054 23.6876Z" fill="white"/>
<path d="M262.585 19.0237C265.76 19.0237 268.122 19.907 269.673 21.6736C271.224 23.4403 272 26.1079 272 29.6764V45.576H265.237V30.0474C265.237 28.0335 264.84 26.5672 264.046 25.6485C263.289 24.7299 262.08 24.2706 260.421 24.2706C258.473 24.2706 256.904 24.8712 255.714 26.0725C254.56 27.2738 253.982 28.8815 253.982 30.8954V45.576H247.219V19.6597H253.82V23.5286C254.722 22.08 255.93 20.967 257.445 20.1897C258.96 19.4124 260.674 19.0237 262.585 19.0237Z" fill="white"/>
<rect x="120" width="7" height="53" fill="#00BF00"/>
<rect x="151" y="23" width="7" height="49" transform="rotate(90 151 23)" fill="#00BF00"/>
<rect x="142" y="7" width="7" height="12" fill="white"/>
<rect x="142" y="33" width="7" height="34" fill="white"/>
<path d="M166.852 50.72V59H166.072V54.908H161.896V59H161.116V50.72H161.896V54.236H166.072V50.72H166.852ZM172.265 56.468H169.361C169.409 57.236 169.585 57.764 169.889 58.052C170.193 58.34 170.689 58.484 171.377 58.484C171.977 58.484 172.645 58.436 173.381 58.34L173.465 58.856C172.969 59.048 172.237 59.144 171.269 59.144C170.293 59.144 169.597 58.912 169.181 58.448C168.773 57.976 168.569 57.184 168.569 56.072C168.569 54.952 168.769 54.168 169.169 53.72C169.569 53.264 170.237 53.036 171.173 53.036C171.997 53.036 172.605 53.188 172.997 53.492C173.389 53.788 173.589 54.24 173.597 54.848C173.613 55.928 173.169 56.468 172.265 56.468ZM169.361 55.868H172.085C172.597 55.868 172.845 55.532 172.829 54.86C172.821 54.452 172.689 54.156 172.433 53.972C172.177 53.788 171.769 53.696 171.209 53.696C170.529 53.696 170.053 53.856 169.781 54.176C169.509 54.488 169.369 55.052 169.361 55.868ZM175.135 53.864L175.063 53.3C176.223 53.124 177.155 53.036 177.859 53.036C178.483 53.036 178.947 53.176 179.251 53.456C179.563 53.728 179.719 54.184 179.719 54.824V59H179.119L179.023 57.98C178.735 58.268 178.359 58.528 177.895 58.76C177.439 58.984 176.967 59.096 176.479 59.096C175.967 59.096 175.563 58.96 175.267 58.688C174.971 58.416 174.823 58.028 174.823 57.524V56.852C174.823 56.404 174.955 56.056 175.219 55.808C175.483 55.56 175.859 55.436 176.347 55.436H178.951V54.824C178.951 54.44 178.859 54.156 178.675 53.972C178.499 53.788 178.179 53.696 177.715 53.696C177.027 53.696 176.167 53.752 175.135 53.864ZM175.591 56.948V57.452C175.591 58.1 175.931 58.424 176.611 58.424C176.963 58.432 177.355 58.348 177.787 58.172C178.227 57.988 178.615 57.744 178.951 57.44V56.048H176.467C175.883 56.072 175.591 56.372 175.591 56.948ZM182.334 50.6V57.56C182.334 58.12 182.618 58.4 183.186 58.4H183.798L183.882 58.976C183.666 59.056 183.346 59.096 182.922 59.096C182.506 59.096 182.178 58.976 181.938 58.736C181.698 58.488 181.578 58.144 181.578 57.704V50.6H182.334ZM187.796 58.4L187.892 58.976C187.492 59.056 187.088 59.096 186.68 59.096C185.72 59.096 185.24 58.612 185.24 57.644V53.792H184.184V53.252L185.24 53.192V51.428H185.996V53.192H187.964V53.792H185.996V57.56C185.996 58.12 186.28 58.4 186.848 58.4H187.796ZM189.934 50.6V53.012C189.934 53.476 189.906 53.852 189.85 54.14C190.842 53.404 191.734 53.036 192.526 53.036C193.038 53.036 193.426 53.172 193.69 53.444C193.962 53.716 194.098 54.112 194.098 54.632V59H193.33V54.836C193.33 54.428 193.25 54.136 193.09 53.96C192.938 53.784 192.682 53.696 192.322 53.696C191.97 53.696 191.614 53.776 191.254 53.936C190.894 54.088 190.446 54.344 189.91 54.704V59H189.154V50.6H189.934ZM202.795 58.352L202.879 58.88C202.287 59.056 201.655 59.144 200.983 59.144C199.983 59.144 199.279 58.916 198.871 58.46C198.463 58.004 198.259 57.216 198.259 56.096C198.259 54.976 198.463 54.188 198.871 53.732C199.279 53.268 199.983 53.036 200.983 53.036C201.695 53.036 202.291 53.124 202.771 53.3L202.651 53.792C202.227 53.728 201.711 53.696 201.103 53.696C200.335 53.696 199.799 53.868 199.495 54.212C199.199 54.548 199.051 55.176 199.051 56.096C199.051 57.016 199.199 57.644 199.495 57.98C199.799 58.316 200.335 58.484 201.103 58.484C201.775 58.484 202.339 58.44 202.795 58.352ZM204.239 53.864L204.167 53.3C205.327 53.124 206.259 53.036 206.963 53.036C207.587 53.036 208.051 53.176 208.355 53.456C208.667 53.728 208.823 54.184 208.823 54.824V59H208.223L208.127 57.98C207.839 58.268 207.463 58.528 206.999 58.76C206.543 58.984 206.071 59.096 205.583 59.096C205.071 59.096 204.667 58.96 204.371 58.688C204.075 58.416 203.927 58.028 203.927 57.524V56.852C203.927 56.404 204.059 56.056 204.323 55.808C204.587 55.56 204.963 55.436 205.451 55.436H208.055V54.824C208.055 54.44 207.963 54.156 207.779 53.972C207.603 53.788 207.283 53.696 206.819 53.696C206.131 53.696 205.271 53.752 204.239 53.864ZM204.695 56.948V57.452C204.695 58.1 205.035 58.424 205.715 58.424C206.067 58.432 206.459 58.348 206.891 58.172C207.331 57.988 207.719 57.744 208.055 57.44V56.048H205.571C204.987 56.072 204.695 56.372 204.695 56.948ZM214.162 53.036L214.066 53.756H213.778C213.442 53.756 213.102 53.828 212.758 53.972C212.414 54.108 211.974 54.336 211.438 54.656V59H210.67V53.192H211.258L211.342 54.152C212.294 53.408 213.15 53.036 213.91 53.036H214.162ZM218.482 56.468H215.578C215.626 57.236 215.802 57.764 216.106 58.052C216.41 58.34 216.906 58.484 217.594 58.484C218.194 58.484 218.862 58.436 219.598 58.34L219.682 58.856C219.186 59.048 218.454 59.144 217.486 59.144C216.51 59.144 215.814 58.912 215.398 58.448C214.99 57.976 214.786 57.184 214.786 56.072C214.786 54.952 214.986 54.168 215.386 53.72C215.786 53.264 216.454 53.036 217.39 53.036C218.214 53.036 218.822 53.188 219.214 53.492C219.606 53.788 219.806 54.24 219.814 54.848C219.83 55.928 219.386 56.468 218.482 56.468ZM215.578 55.868H218.302C218.814 55.868 219.062 55.532 219.046 54.86C219.038 54.452 218.906 54.156 218.65 53.972C218.394 53.788 217.986 53.696 217.426 53.696C216.746 53.696 216.27 53.856 215.998 54.176C215.726 54.488 215.586 55.052 215.578 55.868ZM221.568 57.716H221.808C222 57.716 222.096 57.816 222.096 58.016V58.784C222.08 59.424 221.964 60 221.748 60.512L221.388 60.404C221.452 59.892 221.484 59.424 221.484 59C221.324 59 221.252 58.916 221.268 58.748V58.016C221.276 57.816 221.376 57.716 221.568 57.716ZM231.178 53.192L228.73 59.408C228.498 60 228.206 60.476 227.854 60.836C227.502 61.204 227.026 61.42 226.426 61.484L226.33 60.992C226.786 60.84 227.142 60.628 227.398 60.356C227.654 60.084 227.862 59.74 228.022 59.324L228.166 59H227.974C227.822 59 227.722 58.932 227.674 58.796L225.466 53.192H226.282L227.998 57.728C228.126 58.064 228.206 58.288 228.238 58.4H228.406L228.658 57.716L230.362 53.192H231.178ZM232.589 53.732C232.997 53.268 233.689 53.036 234.665 53.036C235.641 53.036 236.329 53.268 236.729 53.732C237.129 54.188 237.329 54.976 237.329 56.096C237.329 57.216 237.129 58.004 236.729 58.46C236.329 58.916 235.641 59.144 234.665 59.144C233.689 59.144 232.997 58.916 232.589 58.46C232.189 57.996 231.989 57.208 231.989 56.096C231.989 54.976 232.189 54.188 232.589 53.732ZM236.129 54.212C235.857 53.868 235.369 53.696 234.665 53.696C233.961 53.696 233.473 53.868 233.201 54.212C232.929 54.556 232.793 55.184 232.793 56.096C232.793 57.008 232.929 57.636 233.201 57.98C233.473 58.324 233.961 58.496 234.665 58.496C235.369 58.496 235.857 58.324 236.129 57.98C236.401 57.636 236.537 57.008 236.537 56.096C236.537 55.184 236.401 54.556 236.129 54.212ZM243.718 53.192V59H243.118L243.058 58.088C242.162 58.792 241.302 59.144 240.478 59.144C239.43 59.144 238.906 58.616 238.906 57.56V53.192H239.662V57.356C239.662 57.756 239.746 58.044 239.914 58.22C240.082 58.396 240.354 58.484 240.73 58.484C241.058 58.484 241.386 58.412 241.714 58.268C242.042 58.116 242.458 57.868 242.962 57.524V53.192H243.718ZM249.123 53.036L249.027 53.756H248.739C248.403 53.756 248.063 53.828 247.719 53.972C247.375 54.108 246.935 54.336 246.399 54.656V59H245.631V53.192H246.219L246.303 54.152C247.255 53.408 248.111 53.036 248.871 53.036H249.123ZM260.824 53.192L259.012 58.772C258.964 58.924 258.86 59 258.7 59H257.992C257.824 59 257.72 58.916 257.68 58.748L256.528 54.584C256.496 54.488 256.456 54.34 256.408 54.14C256.36 53.94 256.324 53.788 256.3 53.684H256.168L255.94 54.584L254.8 58.748C254.76 58.916 254.652 59 254.476 59H253.78C253.612 59 253.508 58.924 253.468 58.772L251.656 53.192H252.448L253.816 57.644C253.856 57.78 253.932 58.06 254.044 58.484H254.2L254.428 57.644L255.592 53.432C255.632 53.272 255.732 53.192 255.892 53.192H256.588C256.748 53.192 256.848 53.276 256.888 53.444L258.052 57.644L258.268 58.484H258.436C258.556 58.02 258.628 57.74 258.652 57.644L260.032 53.192H260.824ZM262.017 53.864L261.945 53.3C263.105 53.124 264.037 53.036 264.741 53.036C265.365 53.036 265.829 53.176 266.133 53.456C266.445 53.728 266.601 54.184 266.601 54.824V59H266.001L265.905 57.98C265.617 58.268 265.241 58.528 264.777 58.76C264.321 58.984 263.849 59.096 263.361 59.096C262.849 59.096 262.445 58.96 262.149 58.688C261.853 58.416 261.705 58.028 261.705 57.524V56.852C261.705 56.404 261.837 56.056 262.101 55.808C262.365 55.56 262.741 55.436 263.229 55.436H265.833V54.824C265.833 54.44 265.741 54.156 265.557 53.972C265.381 53.788 265.061 53.696 264.597 53.696C263.909 53.696 263.049 53.752 262.017 53.864ZM262.473 56.948V57.452C262.473 58.1 262.813 58.424 263.493 58.424C263.845 58.432 264.237 58.348 264.669 58.172C265.109 57.988 265.497 57.744 265.833 57.44V56.048H263.349C262.765 56.072 262.473 56.372 262.473 56.948ZM273.416 53.192L270.968 59.408C270.736 60 270.444 60.476 270.092 60.836C269.74 61.204 269.264 61.42 268.664 61.484L268.568 60.992C269.024 60.84 269.38 60.628 269.636 60.356C269.892 60.084 270.1 59.74 270.26 59.324L270.404 59H270.212C270.06 59 269.96 58.932 269.912 58.796L267.704 53.192H268.52L270.236 57.728C270.364 58.064 270.444 58.288 270.476 58.4H270.644L270.896 57.716L272.6 53.192H273.416Z" fill="#00BF00"/>
</svg>
