<svg width="153" height="149" viewBox="0 0 153 149" fill="none" xmlns="http://www.w3.org/2000/svg">
<path d="M76.5 149C118.75 149 153 115.645 153 74.5C153 33.3548 118.75 0 76.5 0C34.2502 0 0 33.3548 0 74.5C0 115.645 34.2502 149 76.5 149Z" fill="#94F37D"/>
<path fill-rule="evenodd" clip-rule="evenodd" d="M85.6362 24.7445C87.1879 23.0077 88.2381 20.8793 88.0626 18.4944C87.5569 11.6227 77.5256 13.1343 75.5742 16.6026C73.6229 20.0708 73.8548 28.8683 76.3767 29.4882C77.3824 29.7354 79.5249 29.1298 81.7055 27.8765L80.3368 37.11H88.4184L85.6362 24.7445Z" fill="#915B3C"/>
<path fill-rule="evenodd" clip-rule="evenodd" d="M78.7664 12.8252C79.8707 12.5041 81.4738 12.3952 82.1481 12.4689C81.7645 11.5925 81.6123 10.616 81.7364 9.66529C81.857 8.74148 82.2899 7.95488 82.6903 7.13062C82.8748 6.75069 83.084 6.37283 83.3958 6.08223C83.7134 5.78616 84.1155 5.59074 84.5371 5.4975C84.9686 5.40207 85.4198 5.41001 85.8519 5.49662C86.0431 5.53493 86.2146 5.61828 86.4021 5.66461C86.5941 5.71208 86.6873 5.59749 86.8266 5.48233C87.1624 5.20485 87.6548 5.06787 88.0797 5.01885C88.5564 4.96387 89.051 5.03244 89.5056 5.18187C89.9481 5.32734 90.3732 5.56356 90.6932 5.90769C90.8356 6.06087 90.9649 6.23523 91.049 6.42773C91.0834 6.50673 91.0891 6.55353 91.1718 6.58247C91.2482 6.60926 91.3377 6.61004 91.4166 6.63553C92.1796 6.88195 92.8319 7.44411 93.1871 8.16589C93.3943 8.58698 93.4925 9.32836 93.4656 10.1593C93.4387 10.9903 92.6519 13.1585 91.9159 13.9494C91.259 14.6553 90.2934 15.1212 89.3616 15.3251C89.9801 15.9992 90.3918 16.8417 90.6963 17.6984C91.027 18.6291 91.2317 19.5961 91.3073 20.5814C91.3791 21.5176 91.3857 22.5075 91.1556 23.4237C90.9403 24.2804 90.4799 24.9833 89.7112 25.4291C89.3591 25.6334 88.9803 25.7868 88.5993 25.9271C88.2238 26.0653 87.8472 26.1996 87.4539 26.2772C86.7095 26.4239 85.8518 26.3987 85.2784 25.8337C85.0717 25.63 84.8444 25.3741 84.6936 25.1253C84.6394 25.0358 84.6067 24.9773 84.6726 24.8898C84.7515 24.785 84.8791 24.7048 84.9805 24.6228C85.5585 24.1556 85.9163 23.5318 86.0065 22.7905C86.098 22.0384 85.8862 21.0676 85.1193 20.7394C84.1727 20.3342 83.1302 20.7993 82.2889 21.2328C81.9313 20.0294 81.1971 18.9459 80.0461 18.3939C78.7726 17.7832 77.3113 17.7117 76.0026 17.1877C75.6616 17.0512 75.3142 16.8962 75.0632 16.618C74.9583 16.5017 74.8352 16.3509 74.7933 16.1971C74.7382 15.9951 74.8749 15.8257 74.9804 15.6683C75.54 14.8333 77.6621 13.1463 78.7664 12.8252Z" fill="#A1A1AD"/>
<path fill-rule="evenodd" clip-rule="evenodd" d="M111.612 77.7701H72.8878C69.9122 77.7701 67.5 80.0703 67.5 82.9077V112.449C67.5 115.286 69.9122 117.587 72.8878 117.587H111.612C114.588 117.587 117 115.286 117 112.449V82.9077C117 80.0703 114.588 77.7701 111.612 77.7701ZM106.224 86.761C106.968 86.761 107.571 87.336 107.571 88.0454V107.311C107.571 108.021 106.968 108.596 106.224 108.596H78.2755C77.5316 108.596 76.9286 108.021 76.9286 107.311V88.0454C76.9286 87.336 77.5316 86.761 78.2755 86.761H106.224Z" fill="#C5CFD6"/>
<path fill-rule="evenodd" clip-rule="evenodd" d="M34.1097 115.981C40.7488 108.25 45.2409 102.519 47.5861 98.7874C51.6017 92.3978 54.8882 86.7122 55.9254 84.5403C58.3986 79.3613 50.2316 76.9361 48.3832 79.3518C45.5856 83.0081 39.6109 94.5133 30.4592 113.867L34.1097 115.981Z" fill="#B28B67"/>
<path fill-rule="evenodd" clip-rule="evenodd" d="M47.7143 113.733L60.0699 84.0756C62.7125 78.6691 49.9508 75.1154 48.0087 77.6314C43.5995 83.3436 33.1198 105.877 31.8061 107.579L47.7143 113.733Z" fill="#2F3676"/>
<path fill-rule="evenodd" clip-rule="evenodd" d="M80.6215 107.786C78.2147 104.438 69.4603 93.1747 64.692 88.5145C63.3218 87.1753 61.9848 85.89 60.7202 84.6922C56.9616 81.132 49.4767 87.116 53.2285 90.3588C62.5718 98.4345 76.2042 109.337 77.3432 110.309C78.9396 111.671 82.1341 109.89 80.6215 107.786Z" fill="#915B3C"/>
<path fill-rule="evenodd" clip-rule="evenodd" d="M80.0587 106.273C80.8877 106.924 81.4271 107.456 81.6767 107.868C81.9803 108.37 82.3358 109.15 82.7431 110.208C82.133 110.544 76.6504 113.562 66.2951 119.263C65.0519 118.151 64.8582 117.288 65.714 116.674C66.5699 116.059 67.2761 115.541 67.8328 115.119L73.51 107.66C73.6192 107.517 73.8298 107.485 73.9803 107.589C73.9829 107.591 73.9854 107.593 73.9879 107.595L75.1676 108.461C76.2497 108.371 77.0573 108.179 77.5903 107.885C78.0233 107.647 78.5204 107.151 79.0815 106.397L79.0815 106.397C79.2968 106.108 79.7172 106.04 80.0205 106.246C80.0336 106.254 80.0463 106.264 80.0587 106.273Z" fill="#E4E4E4"/>
<path fill-rule="evenodd" clip-rule="evenodd" d="M36.9655 114.826C37.3422 115.785 37.5306 116.502 37.5306 116.978C37.5306 117.557 37.4294 118.402 37.2271 119.513C36.5227 119.513 30.1919 119.513 18.2347 119.513C17.7411 117.957 18.026 117.117 19.0894 116.993C20.1527 116.869 21.0361 116.757 21.7394 116.657L30.5669 112.905C30.7368 112.832 30.9359 112.905 31.0116 113.067C31.0129 113.07 31.0142 113.073 31.0154 113.076L31.5828 114.388C32.5672 114.826 33.3671 115.045 33.9825 115.045C34.4826 115.045 35.1731 114.852 36.0542 114.467L36.0542 114.467C36.3923 114.319 36.7921 114.461 36.9471 114.783C36.9537 114.797 36.9599 114.811 36.9655 114.826Z" fill="#E4E4E4"/>
<path fill-rule="evenodd" clip-rule="evenodd" d="M64.5158 85.5569C74.7852 83.9615 81.6637 82.8706 85.1515 82.2842C95.0929 80.6127 97.9919 75.5113 96.2779 64.381H77.9609C75.537 65.0485 65.4087 69.1767 47.5763 76.7657C44.3678 78.2844 44.9654 82.7625 45.5518 84.2378C45.5757 84.298 50.9845 93.1358 61.7781 110.751L76.7622 101.649L64.4877 86.6294C64.1635 86.0069 64.1729 85.6493 64.5158 85.5569Z" fill="#5C63AB"/>
<path fill-rule="evenodd" clip-rule="evenodd" d="M63.1962 60.1776L52.4549 67.6989C49.5417 68.4485 47.1077 69.3812 45.1531 70.4968C44.6914 70.898 44.1334 71.7105 46.0482 71.5701C47.9631 71.4297 49.9838 71.3641 50.248 71.9869C50.5122 72.6097 49.3535 73.3545 49.8876 74.1948C50.2436 74.755 51.9258 73.3503 54.934 69.9807L65.5706 65.7747L63.1962 60.1776ZM104.437 60.4372L97.4003 60.4636C101.745 73.8386 104.091 80.9353 104.437 81.7537C105.216 83.595 103.568 86.3994 102.862 87.9064C105.159 88.8864 104.914 85.2573 107.811 86.5425C110.456 87.7156 112.467 89.8412 115.522 88.0436C115.898 87.8226 116.309 86.9905 115.315 86.3403C112.837 84.7203 109.267 81.885 108.784 80.9518C108.127 79.6791 106.677 72.8409 104.437 60.4372Z" fill="#915B3C"/>
<path fill-rule="evenodd" clip-rule="evenodd" d="M84.4394 32.2806L81.5276 31.8044C70.724 40.7038 66.2866 57.8007 53.0441 66.8576L56.2314 70.625C79.2048 67.9126 84.8989 47.0585 84.4394 32.2806Z" fill="#0109D6"/>
<path fill-rule="evenodd" clip-rule="evenodd" d="M97.1326 67.1739C85.4574 67.1739 76.8694 67.1739 71.3685 67.1739C70.1913 67.1739 70.4131 65.5529 70.5833 64.7349C72.5474 55.2944 80.2146 45.118 80.2146 31.6797L87.6462 30.5685C93.793 39.9955 95.9187 51.602 97.1326 67.1739Z" fill="#DDE3E9"/>
<path fill-rule="evenodd" clip-rule="evenodd" d="M96.9256 39.8347C98.0049 39.5389 98.8596 38.8488 99.4897 37.7647C102.206 33.091 101.225 30.5178 98.3222 29.672C95.4194 28.8262 92.8307 30.5684 88.2057 30.5684C87.9542 30.5684 87.7238 30.5835 87.5145 30.6135L85.1881 30.7401C78.5132 52.3118 76.6723 66.7041 79.6654 73.917H99.9437C101.145 76.5885 102.295 78.8362 103.393 80.6601H108.918C109.438 64.6266 105.441 51.0181 96.9256 39.8347Z" fill="#0109D6"/>
<path fill-rule="evenodd" clip-rule="evenodd" d="M95.528 62.8383C94.8903 67.9265 93.8537 71.6194 92.4183 73.917H99.9438C98.5423 70.8007 97.0704 67.1078 95.528 62.8383Z" fill="black" fill-opacity="0.1"/>
</svg>
