<svg width="153" height="149" viewBox="0 0 153 149" fill="none" xmlns="http://www.w3.org/2000/svg">
<path d="M76.5 149C118.75 149 153 115.645 153 74.5C153 33.3548 118.75 0 76.5 0C34.2502 0 0 33.3548 0 74.5C0 115.645 34.2502 149 76.5 149Z" fill="#94F37D"/>
<path fill-rule="evenodd" clip-rule="evenodd" d="M35.9467 70.3718C30.5825 64.6841 26.9518 57.7138 27.5585 49.9034C29.3065 27.3994 63.9864 32.35 70.7324 43.7081C77.4783 55.0662 76.6767 83.8769 67.9582 85.9069C64.4813 86.7165 57.0743 84.7334 49.5358 80.629L54.2676 110.867H26.3283L35.9467 70.3718Z" fill="#B28B67"/>
<path fill-rule="evenodd" clip-rule="evenodd" d="M44.64 58.1493C43.7263 57.5821 42.6347 57.2376 41.4621 57.2376C38.2474 57.2376 35.6414 59.827 35.6414 62.4954C35.6414 65.2714 37.0926 67.4178 39.165 68.3284C38.0582 70.2832 36.9452 71.7019 35.6414 71.9595C30.6101 71.4998 24 60.2036 24 50.9282C24 40.7759 32.9429 32 49.611 32C64.5924 32 70.2728 37.5798 70.5655 42.5157C64.1457 44.1094 52.928 44.7231 36.8055 44.6188V45.6704L50.7752 46.7219L53.1034 53.0313C49.3992 52.7815 46.7522 55.0766 44.64 58.1493Z" fill="#86049B"/>
<path fill-rule="evenodd" clip-rule="evenodd" d="M119.392 74.9887C124.578 80.8093 127.992 87.8684 127.145 95.6605C124.702 118.112 90.1887 112.289 83.7961 100.765C77.4036 89.2417 79.0947 60.4624 87.8726 58.6529C91.3732 57.9312 98.716 60.1002 106.125 64.393L102.329 34.047L130.257 34.7511L119.392 74.9887Z" fill="#B28B67"/>
<path fill-rule="evenodd" clip-rule="evenodd" d="M103.864 92.5948C103.215 79.1165 100.598 72.3202 96.0111 72.206C89.1303 72.0346 83.1691 75.8349 80.15 75.7597C77.9492 75.7049 78.5184 73.2294 80.0349 71.4212C81.2861 69.9294 87.1933 68.6086 87.2671 66.2494C87.3409 63.8901 82.6529 65.6 82.6966 64.2008C82.769 61.8863 82.0913 57.5144 86.5384 57.6252C91.0391 57.7372 103.897 59.5401 105.92 65.6288C107.225 69.5583 107.895 77.6504 107.931 89.9049C108.203 89.941 108.48 89.963 108.762 89.97C112.618 90.066 115.832 87.3202 115.941 83.837C115.997 82.0687 115.241 80.4504 113.979 79.2729C115.659 77.2533 117.537 75.1466 119.681 72.9779C127.343 77.3961 132.741 89.9055 124.749 101.594C122.46 107.361 117.595 110.351 111.918 111.654C107.302 113.264 102.561 113.34 98.5957 112.207C90.7784 111.405 83.8486 109.072 81.9056 107.741C82.1152 101.04 83.6149 99.0875 95.8876 99.5685C98.9496 98.2044 101.346 95.7838 103.864 92.5948Z" fill="#191847"/>
</svg>
