<svg width="187" height="200" viewBox="0 0 187 200" fill="none" xmlns="http://www.w3.org/2000/svg">
<g clip-path="url(#clip0)">
<g opacity="0.2">
<path opacity="0.2" d="M138.905 182.541C138.737 182.838 138.543 183.121 138.325 183.387C136.398 182.105 134.438 180.845 132.445 179.609L132.575 179.367C133.036 178.524 133.726 177.812 134.574 177.305C135.674 176.664 136.914 176.524 137.935 177.045C138.955 177.565 139.524 178.607 139.585 179.823C139.616 180.77 139.381 181.708 138.905 182.541V182.541Z" fill="#3F3D56"/>
<path opacity="0.2" d="M141.589 177.774C142.801 175.607 142.367 173.14 140.62 172.264C138.872 171.388 136.473 172.434 135.261 174.6C134.049 176.767 134.483 179.234 136.23 180.11C137.978 180.987 140.377 179.941 141.589 177.774Z" fill="#3F3D56"/>
<path opacity="0.2" d="M144.272 172.979C145.484 170.813 145.05 168.346 143.302 167.469C141.555 166.593 139.156 167.639 137.944 169.806C136.732 171.972 137.166 174.439 138.913 175.316C140.66 176.192 143.06 175.146 144.272 172.979Z" fill="#3F3D56"/>
<path opacity="0.2" d="M146.954 168.185C148.167 166.018 147.733 163.551 145.985 162.675C144.238 161.798 141.838 162.844 140.626 165.011C139.414 167.178 139.848 169.645 141.596 170.521C143.343 171.398 145.742 170.352 146.954 168.185Z" fill="#3F3D56"/>
<path opacity="0.2" d="M149.634 163.393C150.846 161.226 150.413 158.759 148.665 157.883C146.918 157.007 144.518 158.053 143.306 160.219C142.094 162.386 142.528 164.853 144.276 165.729C146.023 166.606 148.422 165.56 149.634 163.393Z" fill="#3F3D56"/>
<path opacity="0.2" d="M152.969 123.044C152.822 122.306 152.73 121.56 152.694 120.81L161.747 123.695L152.719 119.248C152.85 117.038 153.456 114.876 154.5 112.896C155.544 110.916 157.004 109.158 158.79 107.731L167.538 119.708L160.746 106.387C162.742 105.204 164.974 104.423 167.303 104.093C169.632 103.762 172.008 103.889 174.283 104.466C176.557 105.043 178.682 106.057 180.525 107.446C182.368 108.834 183.889 110.567 184.993 112.536C186.098 114.506 186.762 116.669 186.945 118.892C187.128 121.115 186.826 123.35 186.056 125.458C185.287 127.565 184.068 129.5 182.475 131.142C180.881 132.784 178.948 134.097 176.795 135.001C177.019 136.15 177.111 137.319 177.07 138.487L163.32 138.383L176.872 140.497C176.414 143.162 175.261 145.676 173.519 147.813C171.776 149.95 169.499 151.642 166.892 152.735C167.466 155.734 167.138 158.825 165.944 161.656C164.75 164.486 162.74 166.941 160.142 168.74C157.544 170.539 154.464 171.61 151.254 171.83C148.043 172.05 144.832 171.411 141.988 169.984C139.144 168.558 136.781 166.403 135.169 163.765C133.557 161.127 132.762 158.112 132.874 155.067C132.986 152.021 134.001 149.067 135.803 146.541C137.605 144.016 140.121 142.022 143.063 140.786C142.378 137.203 142.984 133.506 144.784 130.288C146.585 127.07 149.475 124.518 152.991 123.041L152.969 123.044Z" fill="#6C63FF"/>
<path opacity="0.1" d="M175.076 145.492C173.28 148.713 170.389 151.266 166.87 152.738C167.444 155.737 167.116 158.828 165.922 161.658C164.728 164.488 162.718 166.943 160.12 168.743C157.522 170.542 154.442 171.613 151.232 171.833C148.021 172.053 144.81 171.413 141.966 169.987C139.122 168.561 136.759 166.405 135.147 163.767C133.535 161.129 132.74 158.115 132.852 155.069C132.964 152.024 133.979 149.069 135.781 146.544C137.583 144.019 140.099 142.024 143.041 140.789C142.376 137.329 175.978 143.88 175.076 145.492Z" fill="black"/>
</g>
<g opacity="0.2">
<path opacity="0.2" d="M59.675 161.885C59.838 162.514 60.0579 163.128 60.3323 163.721C64.5691 162.185 68.8545 160.709 73.1885 159.294C73.15 159.128 73.1115 158.956 73.0675 158.774C72.6276 156.993 71.6945 155.355 70.3643 154.029C68.6345 152.342 66.3905 151.519 64.2318 152.019C62.073 152.519 60.4835 154.225 59.7658 156.469C59.2256 158.234 59.1943 160.104 59.675 161.885V161.885Z" fill="#3F3D56"/>
<path opacity="0.2" d="M65.9048 158.475C69.6037 157.62 71.6442 153.211 70.4623 148.627C69.2804 144.044 65.3237 141.021 61.6248 141.876C57.9259 142.731 55.8854 147.14 57.0673 151.724C58.2492 156.307 62.2058 159.33 65.9048 158.475Z" fill="#3F3D56"/>
<path opacity="0.2" d="M63.2864 148.33C66.9853 147.475 69.0258 143.066 67.8439 138.482C66.6621 133.898 62.7053 130.876 59.0064 131.731C55.3074 132.586 53.267 136.995 54.4489 141.579C55.6307 146.162 59.5874 149.185 63.2864 148.33Z" fill="#3F3D56"/>
<path opacity="0.2" d="M60.6714 138.184C64.3704 137.329 66.4108 132.92 65.229 128.337C64.0471 123.753 60.0904 120.731 56.3914 121.586C52.6925 122.441 50.652 126.85 51.8339 131.433C53.0158 136.017 56.9725 139.04 60.6714 138.184Z" fill="#3F3D56"/>
<path opacity="0.2" d="M58.0564 128.042C61.7553 127.187 63.7958 122.778 62.6139 118.194C61.4321 113.61 57.4754 110.588 53.7764 111.443C50.0775 112.298 48.037 116.707 49.2189 121.291C50.4008 125.874 54.3575 128.897 58.0564 128.042Z" fill="#3F3D56"/>
<path opacity="0.2" d="M63.0803 44.5384C63.7122 43.2249 64.2461 41.8711 64.6781 40.4869L46.3768 41.8174L65.4508 37.5446C66.3076 33.3604 66.2536 29.0547 65.2923 24.891C64.331 20.7272 62.4826 16.793 59.8601 13.329L37.5521 31.7797L56.8736 9.95179C53.7366 6.85588 49.9603 4.40442 45.7796 2.74998C41.5989 1.09555 37.1033 0.273542 32.5727 0.335131C28.042 0.39672 23.5732 1.34058 19.4444 3.10798C15.3155 4.87537 11.6151 7.42847 8.57333 10.6084C5.53156 13.7883 3.21356 17.5269 1.76361 21.5916C0.31365 25.6563 -0.237225 29.9601 0.145253 34.2351C0.527731 38.5101 1.83538 42.6648 3.98682 46.4406C6.13826 50.2165 9.08744 53.5327 12.6508 56.1828C11.6656 58.2283 10.9178 60.369 10.4206 62.5673L36.1578 68.5249L9.81281 66.4106C9.33399 71.5944 10.2285 76.8095 12.4152 81.5834C14.602 86.3574 18.012 90.5394 22.3363 93.7508C19.7694 99.0909 18.8414 105.007 19.6582 110.823C20.475 116.639 23.0038 122.12 26.9554 126.639C30.907 131.159 36.122 134.534 42.004 136.379C47.886 138.225 54.1978 138.466 60.2177 137.075C66.2375 135.684 71.7225 132.717 76.0455 128.513C80.3685 124.31 83.3551 119.039 84.6638 113.305C85.9725 107.57 85.5504 101.602 83.4459 96.0836C81.3414 90.5652 77.6394 85.7188 72.7631 82.0986C75.831 75.7167 76.5441 68.5436 74.7881 61.7316C73.032 54.9197 68.9086 48.8643 63.0803 44.5384V44.5384Z" fill="#6C63FF"/>
<path opacity="0.1" d="M10.6315 76.5499C12.3769 83.3631 16.501 89.4186 22.3355 93.7351C19.7686 99.0752 18.8406 104.991 19.6574 110.807C20.4742 116.623 23.003 122.104 26.9546 126.624C30.9062 131.143 36.1211 134.518 42.0032 136.364C47.8852 138.209 54.197 138.45 60.2168 137.059C66.2367 135.668 71.7217 132.701 76.0447 128.498C80.3677 124.294 83.3543 119.024 84.663 113.289C85.9716 107.554 85.5496 101.586 83.4451 96.0679C81.3406 90.5495 77.6386 85.7032 72.7623 82.083C75.7295 75.9276 9.7515 73.1415 10.6315 76.5499Z" fill="black"/>
</g>
<path d="M154 43.826H153.387V12.5124C153.387 5.60706 147.383 0.0140381 139.978 0.0140381H64.867C57.4613 0.0140381 51.458 5.61227 51.458 12.5124V25.4925H51.4113H51.2793C51.0719 25.4911 50.8723 25.5676 50.7244 25.7052C50.5765 25.8429 50.4922 26.0304 50.49 26.2268V32.476C50.4922 32.6723 50.5765 32.8599 50.7244 32.9975C50.8723 33.1351 51.0719 33.2116 51.2793 33.2102H51.425H51.4718V39.5922H51.2298C51.1272 39.5915 51.0255 39.61 50.9305 39.6465C50.8354 39.683 50.7489 39.7369 50.6759 39.8051C50.6029 39.8733 50.5447 39.9544 50.5048 40.0439C50.4649 40.1334 50.444 40.2294 50.4432 40.3265V52.2755C50.4447 52.4718 50.5283 52.6596 50.6757 52.7978C50.8231 52.9359 51.0224 53.013 51.2298 53.0123H51.4718V57.6992H51.2628C51.16 57.6982 51.058 57.7164 50.9626 57.7528C50.8673 57.7891 50.7804 57.843 50.7071 57.9112C50.6338 57.9794 50.5754 58.0607 50.5353 58.1503C50.4952 58.2399 50.4742 58.3362 50.4735 58.4335V70.4997C50.4742 70.597 50.4952 70.6932 50.5353 70.7829C50.5754 70.8725 50.6338 70.9537 50.7071 71.022C50.7804 71.0902 50.8673 71.144 50.9626 71.1804C51.058 71.2168 51.16 71.235 51.2628 71.2339H51.4718V180.694C51.4718 187.599 57.475 193.192 64.8807 193.192H139.975C147.381 193.192 153.384 187.594 153.384 180.694V67.2449H154C154.207 67.2463 154.407 67.1698 154.555 67.0321C154.703 66.8945 154.787 66.707 154.789 66.5106V44.5603C154.787 44.364 154.703 44.1764 154.555 44.0388C154.407 43.9012 154.207 43.8247 154 43.826Z" fill="url(#paint0_linear)"/>
<g opacity="0.9">
<path opacity="0.9" d="M152.807 44.5931H151.104C150.756 44.5931 150.475 44.8601 150.475 45.1894V67.1241C150.475 67.4534 150.756 67.7203 151.104 67.7203H152.807C153.154 67.7203 153.436 67.4534 153.436 67.1241V45.1894C153.436 44.8601 153.154 44.5931 152.807 44.5931Z" fill="#E5E7EB"/>
<path opacity="0.9" d="M53.0227 26.4757H52.6185C52.2707 26.4757 51.9888 26.7427 51.9888 27.072V33.493C51.9888 33.8223 52.2707 34.0893 52.6185 34.0893H53.0227C53.3705 34.0893 53.6525 33.8223 53.6525 33.493V27.072C53.6525 26.7427 53.3705 26.4757 53.0227 26.4757Z" fill="#E5E7EB"/>
<path opacity="0.9" d="M53.174 40.4139H52.558C52.2102 40.4139 51.9283 40.6809 51.9283 41.0102V53.0685C51.9283 53.3979 52.2102 53.6648 52.558 53.6648H53.174C53.5218 53.6648 53.8037 53.3979 53.8037 53.0685V41.0102C53.8037 40.6809 53.5218 40.4139 53.174 40.4139Z" fill="#E5E7EB"/>
<path opacity="0.9" d="M53.1144 58.3024H52.5892C52.2414 58.3024 51.9594 58.5693 51.9594 58.8986V71.0715C51.9594 71.4008 52.2414 71.6678 52.5892 71.6678H53.1144C53.4622 71.6678 53.7442 71.4008 53.7442 71.0715V58.8986C53.7442 58.5693 53.4622 58.3024 53.1144 58.3024Z" fill="#E5E7EB"/>
<path opacity="0.9" d="M141.35 1.31494H63.6515C57.7298 1.31494 52.9293 5.86029 52.9293 11.4673V181.948C52.9293 187.555 57.7298 192.1 63.6515 192.1H141.35C147.272 192.1 152.072 187.555 152.072 181.948V11.4673C152.072 5.86029 147.272 1.31494 141.35 1.31494Z" fill="white"/>
<path opacity="0.9" d="M105.721 7.01208H94.0032C93.4155 7.01208 92.939 7.46324 92.939 8.01977V8.66551C92.939 9.22204 93.4155 9.6732 94.0032 9.6732H105.721C106.309 9.6732 106.785 9.22204 106.785 8.66551V8.01977C106.785 7.46324 106.309 7.01208 105.721 7.01208Z" fill="#E5E7EB"/>
<path opacity="0.9" d="M110.47 9.85296C111.351 9.85296 112.065 9.17681 112.065 8.34274C112.065 7.50867 111.351 6.83252 110.47 6.83252C109.589 6.83252 108.875 7.50867 108.875 8.34274C108.875 9.17681 109.589 9.85296 110.47 9.85296Z" fill="#E5E7EB"/>
</g>
<path d="M138.077 6.28564H126.728V7.58756C126.728 9.21549 126.044 10.7765 124.828 11.9274C123.612 13.0783 121.963 13.7248 120.244 13.7248H84.0592C82.3399 13.7248 80.691 13.0783 79.475 11.9274C78.259 10.7765 77.5755 9.21549 77.5748 7.58756V6.28564H66.9267C64.8386 6.28564 62.836 7.07106 61.3595 8.46909C59.883 9.86713 59.0535 11.7633 59.0535 13.7404V179.677C59.0535 181.654 59.883 183.55 61.3595 184.948C62.836 186.346 64.8386 187.132 66.9267 187.132H138.077C140.166 187.132 142.168 186.346 143.645 184.948C145.121 183.55 145.951 181.654 145.951 179.677V13.7404C145.951 11.7633 145.121 9.86713 143.645 8.46909C142.168 7.07106 140.166 6.28564 138.077 6.28564V6.28564Z" fill="#ECECF3"/>
<path d="M23.9965 198.729C32.6824 198.729 39.7237 197.602 39.7237 196.211C39.7237 194.821 32.6824 193.693 23.9965 193.693C15.3106 193.693 8.26924 194.821 8.26924 196.211C8.26924 197.602 15.3106 198.729 23.9965 198.729Z" fill="#00BF00"/>
<path d="M30.5002 192.092C31.174 191.499 31.8065 190.79 31.999 189.949C32.1915 189.108 31.812 188.077 30.9512 187.767C29.9887 187.418 28.9602 188.048 28.182 188.686C27.4038 189.324 26.5072 190.053 25.487 189.918C26.014 189.467 26.408 188.893 26.6303 188.254C26.8525 187.615 26.8954 186.932 26.7547 186.273C26.7108 186.001 26.589 185.746 26.4028 185.536C25.8693 184.994 24.9012 185.226 24.2605 185.653C22.2282 187.007 21.659 189.624 21.648 191.98C21.4417 191.129 21.615 190.243 21.6095 189.376C21.604 188.509 21.3537 187.538 20.5782 187.069C20.0935 186.824 19.5491 186.704 18.9997 186.721C18.0867 186.689 17.0747 186.775 16.445 187.408C15.6667 188.189 15.8703 189.514 16.544 190.381C17.2178 191.249 18.2463 191.79 19.1923 192.389C19.91 192.845 20.6388 193.376 21.0815 194.097C21.1397 194.194 21.1868 194.296 21.2218 194.402H26.95C28.2376 193.786 29.4317 193.009 30.5002 192.092V192.092Z" fill="#00BF00"/>
<g opacity="0.4">
<path opacity="0.4" d="M170.506 183.796C175.463 183.796 179.481 183.153 179.481 182.359C179.481 181.565 175.463 180.922 170.506 180.922C165.548 180.922 161.53 181.565 161.53 182.359C161.53 183.153 165.548 183.796 170.506 183.796Z" fill="#6C63FF"/>
<path opacity="0.4" d="M174.215 180.008C174.625 179.692 174.924 179.266 175.073 178.787C175.183 178.3 174.963 177.716 174.474 177.539C173.924 177.341 173.338 177.701 172.893 178.06C172.447 178.419 171.938 178.841 171.355 178.763C171.657 178.505 171.882 178.178 172.009 177.812C172.136 177.447 172.16 177.057 172.078 176.68C172.054 176.525 171.984 176.38 171.878 176.261C171.573 175.951 171.02 176.084 170.657 176.326C169.496 177.107 169.172 178.594 169.163 179.937C169.048 179.453 169.147 178.948 169.144 178.451C169.141 177.953 168.996 177.409 168.553 177.133C168.277 176.994 167.967 176.926 167.654 176.935C167.131 176.917 166.554 176.966 166.193 177.326C165.751 177.776 165.866 178.529 166.251 179.024C166.636 179.518 167.222 179.828 167.764 180.169C168.195 180.414 168.563 180.747 168.842 181.143C168.875 181.198 168.902 181.257 168.921 181.318H172.194C172.927 180.969 173.607 180.529 174.215 180.008V180.008Z" fill="#6C63FF"/>
</g>
<g opacity="0.4">
<path opacity="0.4" d="M33.0275 167.645C37.9848 167.645 42.0035 167.001 42.0035 166.207C42.0035 165.414 37.9848 164.77 33.0275 164.77C28.0702 164.77 24.0515 165.414 24.0515 166.207C24.0515 167.001 28.0702 167.645 33.0275 167.645Z" fill="#6C63FF"/>
<path opacity="0.4" d="M36.74 163.856C37.1502 163.54 37.4486 163.113 37.5952 162.632C37.7052 162.148 37.488 161.565 36.9957 161.388C36.4457 161.19 35.86 161.549 35.4173 161.909C34.9745 162.268 34.4603 162.69 33.88 162.612C34.1804 162.353 34.4049 162.025 34.5317 161.66C34.6584 161.295 34.6831 160.905 34.6032 160.528C34.5773 160.373 34.508 160.228 34.4025 160.107C34.0973 159.799 33.5445 159.932 33.1787 160.174C32.0183 160.956 31.6938 162.44 31.6883 163.783C31.57 163.299 31.669 162.794 31.6663 162.297C31.6635 161.799 31.5205 161.255 31.0778 160.995C30.8011 160.853 30.4899 160.784 30.1758 160.794C29.656 160.776 29.0758 160.825 28.7183 161.187C28.2755 161.638 28.391 162.39 28.776 162.885C29.161 163.38 29.7468 163.687 30.2858 164.031C30.7183 164.274 31.0869 164.607 31.3637 165.005C31.3967 165.06 31.4243 165.119 31.4463 165.179H34.716C35.4504 164.826 36.1312 164.381 36.74 163.856Z" fill="#6C63FF"/>
</g>
<path d="M79.7693 20.0625H65.7195V33.3654H79.7693V20.0625Z" fill="#D6D8E0"/>
<path d="M119.573 21.0129H90.1367V23.5465H119.573V21.0129Z" fill="#D6D8E0"/>
<path d="M138.639 25.4473H90.1367V27.9808H138.639V25.4473Z" fill="#D6D8E0"/>
<path d="M138.639 29.8815H90.1367V32.415H138.639V29.8815Z" fill="#D6D8E0"/>
<path d="M79.8765 44.45H65.8267V57.7529H79.8765V44.45Z" fill="#D6D8E0"/>
<path d="M119.68 45.4004H90.244V47.9339H119.68V45.4004Z" fill="#D6D8E0"/>
<path d="M138.746 49.8346H90.244V52.3681H138.746V49.8346Z" fill="#D6D8E0"/>
<path d="M138.746 54.2664H90.244V56.7999H138.746V54.2664Z" fill="#D6D8E0"/>
<path d="M79.9837 68.8374H65.934V82.1404H79.9837V68.8374Z" fill="#D6D8E0"/>
<path d="M119.79 69.7852H90.354V72.3187H119.79V69.7852Z" fill="#D6D8E0"/>
<path d="M138.856 74.2195H90.354V76.753H138.856V74.2195Z" fill="#D6D8E0"/>
<path d="M138.856 78.6538H90.354V81.1873H138.856V78.6538Z" fill="#D6D8E0"/>
<path d="M80.091 93.2222H66.0412V106.525H80.091V93.2222Z" fill="#D6D8E0"/>
<path d="M119.897 94.1726H90.4613V96.7061H119.897V94.1726Z" fill="#D6D8E0"/>
<path d="M138.963 98.6071H90.4613V101.141H138.963V98.6071Z" fill="#D6D8E0"/>
<path d="M138.963 103.041H90.4613V105.575H138.963V103.041Z" fill="#D6D8E0"/>
<path d="M80.201 117.61H66.1513V130.913H80.201V117.61Z" fill="#D6D8E0"/>
<path d="M120.005 118.56H90.5685V121.094H120.005V118.56Z" fill="#D6D8E0"/>
<path d="M139.07 122.994H90.5685V125.528H139.07V122.994Z" fill="#D6D8E0"/>
<path d="M139.07 127.429H90.5685V129.962H139.07V127.429Z" fill="#D6D8E0"/>
<path d="M80.3083 141.997H66.2585V155.3H80.3083V141.997Z" fill="#D6D8E0"/>
<path d="M120.112 142.948H90.6757V145.481H120.112V142.948Z" fill="#D6D8E0"/>
<path d="M139.178 147.382H90.6757V149.915H139.178V147.382Z" fill="#D6D8E0"/>
<path d="M139.178 151.816H90.6757V154.35H139.178V151.816Z" fill="#D6D8E0"/>
<path d="M80.4155 166.385H66.3657V179.687H80.4155V166.385Z" fill="#D6D8E0"/>
<path d="M120.219 167.335H90.783V169.868H120.219V167.335Z" fill="#D6D8E0"/>
<path d="M139.285 171.769H90.783V174.303H139.285V171.769Z" fill="#D6D8E0"/>
<path d="M139.285 176.204H90.783V178.737H139.285V176.204Z" fill="#D6D8E0"/>
<path d="M162.376 60.1746H42.6277V88.361H162.376V60.1746Z" fill="url(#paint1_linear)"/>
<path d="M162.041 60.8098H43.296V87.7308H162.041V60.8098Z" fill="white"/>
<path d="M80.2588 67.6189H66.209V80.9219H80.2588V67.6189Z" fill="#6C63FF"/>
<g opacity="0.5">
<path opacity="0.5" d="M120.065 68.5692H90.629V71.1027H120.065V68.5692Z" fill="#6C63FF"/>
<path opacity="0.5" d="M139.131 73.0035H90.629V75.5371H139.131V73.0035Z" fill="#6C63FF"/>
<path opacity="0.5" d="M139.131 77.4379H90.629V79.9714H139.131V77.4379Z" fill="#6C63FF"/>
</g>
<path d="M85.2995 84.778C84.5515 84.0776 83.3085 83.8458 82.4092 84.3614C81.7107 84.7598 81.3257 85.5019 80.9737 86.2023C80.4595 87.2438 79.706 88.2177 79.475 89.3425C78.8397 92.4437 76.2327 94.8522 75.1877 97.8492C74.8137 98.9194 74.6377 100.068 74.0465 101.044C73.7671 101.472 73.4545 101.879 73.1115 102.263C71.7584 103.879 70.5619 105.607 69.5365 107.426C68.9425 107.535 68.4145 108.012 67.9085 108.384C67.2602 108.862 66.5092 109.198 65.7085 109.371C65.3862 109.407 65.0772 109.514 64.8065 109.684C64.427 109.983 64.3747 110.522 64.0667 110.884C63.843 111.121 63.5591 111.3 63.2417 111.405C63.2417 111.314 63.228 111.222 63.2252 111.129C63.2115 110.647 63.2032 110.163 63.2032 109.678C64.09 108.69 64.5755 107.434 64.5725 106.137C64.5695 104.84 64.0781 103.586 63.1867 102.601C63.2084 101.847 63.3144 101.097 63.503 100.365C63.5993 100.008 63.5855 99.5703 63.2802 99.3386C63.129 99.2266 62.9338 99.185 62.7715 99.0782C62.5429 98.8952 62.3558 98.6702 62.2215 98.4169C61.8142 97.8703 61.2145 97.4792 60.5301 97.3136C59.8456 97.148 59.1213 97.2188 58.487 97.5133C57.4942 98.0081 56.892 98.9975 56.012 99.6693C55.561 100.013 55.0413 100.271 54.5903 100.617C53.6877 101.363 53.046 102.351 52.7505 103.45C52.4613 104.545 52.2936 105.665 52.25 106.793C52.203 107.132 52.217 107.475 52.2912 107.809C52.3802 108.088 52.5168 108.352 52.6955 108.59C53.5336 109.881 54.7114 110.945 56.1137 111.676C56.1193 111.742 56.1193 111.809 56.1137 111.876C56.1137 111.98 56.078 112.082 56.0532 112.186L55.8938 112.144C55.3053 112.019 54.67 112.035 54.142 111.756C53.24 111.277 52.9678 110.108 52.1043 109.572C52.0309 109.527 51.9536 109.487 51.8733 109.454C51.8123 107.973 51.5137 106.51 50.9878 105.114C50.7348 104.447 50.424 103.768 50.4625 103.057C50.4955 102.398 50.8283 101.791 51.1253 101.195C52.162 99.1381 52.888 96.9561 53.6003 94.7819C54.0568 93.4158 54.5151 92.0488 54.9753 90.6809C55.4231 90.3661 55.8285 90.0006 56.1825 89.5925C56.9163 88.7836 57.4007 87.7989 57.5823 86.7465C57.6695 86.2213 57.6461 85.685 57.5135 85.1684C57.3808 84.6518 57.1416 84.1652 56.8095 83.7365C56.6628 83.5316 56.4716 83.3587 56.2488 83.2294C56.0259 83.1001 55.7764 83.0173 55.517 82.9866C55.289 82.9913 55.0643 83.0398 54.8568 83.1294C54.6492 83.2189 54.4631 83.3475 54.3097 83.5073C53.8539 83.9997 53.5028 84.5709 53.2758 85.1894C52.8248 86.1971 52.3683 87.2438 52.4123 88.3374C52.448 89.2436 52.8055 90.2565 52.2472 90.9933C50.4185 93.4071 49.038 96.1828 47.5887 98.8231C47.2224 99.4536 46.908 100.11 46.6483 100.786C46.2979 101.883 46.1318 103.026 46.156 104.171C46.1423 106.319 46.453 108.457 46.761 110.587C46.9013 111.548 47.08 112.569 47.5613 113.399C47.246 114.429 47.0804 115.494 47.069 116.566C47.0562 116.813 47.0974 117.06 47.19 117.292C47.3519 117.562 47.5569 117.806 47.7978 118.016C48.1201 118.363 48.3605 118.771 48.5028 119.212C48.6451 119.654 48.686 120.12 48.6228 120.578C48.5421 121.441 48.625 122.31 48.8675 123.145C49.4175 125.458 49.9675 127.767 50.4075 130.098C50.512 130.531 50.5472 130.977 50.512 131.42C50.4267 132.05 50.0583 132.649 50.138 133.282C50.2168 133.575 50.2756 133.873 50.314 134.173C50.2961 134.402 50.2404 134.627 50.149 134.839C49.522 136.566 47.8362 140.523 47.8555 142.351L48.2955 142.252C47.8528 144.624 46.816 146.892 46.2715 149.257C45.8939 150.979 45.7223 152.737 45.76 154.495C45.7963 155.285 45.7816 156.077 45.716 156.865C45.6307 157.565 45.441 158.25 45.3365 158.948C45.2182 159.884 45.1741 160.826 45.2045 161.768C45.1759 163.248 45.2678 164.728 45.4795 166.194C45.9003 168.694 45.1633 171.178 44.9625 173.701C44.8608 175.467 44.6496 177.225 44.33 178.966C44.1788 179.701 43.989 180.43 43.8845 181.172C43.5765 183.375 44.0247 185.645 43.5407 187.819C43.3125 188.837 42.9055 189.98 43.505 190.85C43.6948 191.124 43.967 191.337 44.1733 191.6C44.2862 191.725 44.3633 191.875 44.3971 192.036C44.4308 192.197 44.42 192.363 44.3657 192.519C44.2475 192.759 43.9725 192.915 43.9038 193.17C43.7938 193.571 44.2365 193.899 44.6325 194.071L44.7453 194.113C44.7194 194.25 44.7252 194.391 44.7622 194.526C44.7992 194.66 44.8666 194.786 44.9598 194.894C45.1951 195.104 45.4873 195.248 45.804 195.31L50.996 196.8C52.1538 197.133 53.4133 197.461 54.571 197.19C54.5971 197.346 54.6685 197.493 54.7773 197.612C55.0126 197.822 55.3048 197.967 55.6215 198.029L60.775 199.508C62.1005 199.888 63.5552 200.263 64.8285 199.747C65.1933 199.605 65.5134 199.377 65.758 199.083C65.9602 198.802 66.0946 198.482 66.1516 198.146C66.2086 197.81 66.1869 197.466 66.088 197.138C66.0235 196.805 65.8481 196.501 65.5875 196.269C65.2348 196.036 64.818 195.907 64.3885 195.896C64.022 195.886 63.6628 195.797 63.338 195.636C63.24 195.576 63.1581 195.494 63.0988 195.399C63.3958 195.121 63.6836 194.833 63.9622 194.535C63.7367 194.462 63.657 194.154 63.635 193.93C63.3077 190.613 64.6277 187.371 65.1282 184.075C65.381 182.421 65.4254 180.745 65.2602 179.081C65.1997 178.453 65.109 177.828 65.0815 177.198C64.9522 173.917 66.6077 170.762 66.55 167.478C66.5225 165.942 67.375 164.426 67.7903 162.94C68.1533 161.622 68.1642 160.242 68.1725 158.878L68.2385 148.134C68.2385 146.681 68.2385 145.195 67.749 143.822C67.5019 143.059 67.4343 142.254 67.551 141.463C68.9508 140.877 70.2762 140.01 71.7722 140.161C72.171 139.159 71.698 135.818 71.324 134.805C69.8537 130.82 69.5683 126.529 70.499 122.401C70.8372 120.919 70.3725 119.344 70.7493 117.867C70.8184 117.521 70.9575 117.19 71.159 116.894C71.2611 116.746 71.4013 116.625 71.5663 116.542C71.7313 116.46 71.9157 116.419 72.1022 116.422C72.1022 115.519 72.083 114.6 72.0198 113.683C72.6271 113.214 73.1452 112.649 73.5515 112.014C74.3765 110.712 74.8467 109.246 75.416 107.83C76.4252 105.33 77.803 102.984 78.9607 100.539C80.1185 98.094 80.2312 95.4198 81.1607 92.8889C81.6727 91.495 82.7311 90.3408 84.117 89.6654C84.667 89.405 85.2528 89.2175 85.6515 88.7905C85.9533 88.4345 86.1387 88.0028 86.185 87.5485C86.2708 87.0533 86.2356 86.5461 86.0821 86.0659C85.9286 85.5856 85.6609 85.145 85.2995 84.778V84.778ZM53.1245 192.35C53.2372 192.233 53.3473 192.116 53.4517 191.988C53.1053 191.936 52.6818 191.696 52.6735 191.363C52.6983 191.029 52.7742 190.7 52.899 190.387C53.0617 189.821 53.088 189.229 52.976 188.652C52.899 188.249 52.756 187.871 52.668 187.46C52.5841 187.014 52.529 186.564 52.503 186.111C52.3547 184.488 52.019 182.885 51.502 181.331C51.0043 179.823 51.6863 178.297 51.8623 176.727C51.9475 175.982 51.909 175.214 52.184 174.514C52.3463 174.097 52.613 173.733 52.7753 173.311C53.152 172.345 52.9293 171.269 52.6983 170.262C54.3263 167.468 54.8652 164.135 55.4785 160.989C55.8232 159.224 56.1678 157.46 56.5125 155.696C56.6638 154.915 56.8315 154.092 57.3375 153.462C57.8731 155.799 58.0839 158.192 57.9645 160.581C57.9012 161.274 57.9104 161.972 57.992 162.664C58.1185 163.421 58.4513 164.137 58.6438 164.882C59.0728 166.525 58.8225 168.252 58.9188 169.941C58.9545 170.624 59.048 171.306 59.0782 171.988C59.213 175.006 58.146 177.94 57.0927 180.792C56.4465 182.539 56.3035 184.525 55.9927 186.356C55.7012 188.108 55.4125 189.863 55.264 191.631C55.22 192.17 55.1843 192.725 55.1155 193.272C54.9386 193.235 54.7595 193.208 54.5793 193.191C54.2128 193.181 53.8536 193.092 53.5287 192.931C53.3344 192.781 53.1933 192.578 53.1245 192.35V192.35Z" fill="url(#paint2_linear)"/>
<path d="M64.394 195.922C64.8229 195.934 65.2392 196.062 65.593 196.292C65.8529 196.522 66.0283 196.825 66.0935 197.157C66.1922 197.482 66.2138 197.824 66.1568 198.159C66.0998 198.493 65.9655 198.812 65.7635 199.091C65.5185 199.382 65.1983 199.608 64.834 199.747C63.5607 200.268 62.106 199.891 60.7805 199.513L55.5885 198.031C55.272 197.97 54.9797 197.827 54.7442 197.617C54.6016 197.436 54.5227 197.216 54.5187 196.989C54.5148 196.763 54.586 196.541 54.7222 196.355C55.0015 195.987 55.382 195.7 55.8222 195.524C57.4392 194.779 59.2597 194.607 61.0472 194.576C61.7072 194.563 62.3562 194.428 62.8045 194.91C63.041 195.17 62.9997 195.446 63.3545 195.667C63.676 195.826 64.0315 195.913 64.394 195.922Z" fill="#2F2E41"/>
<path d="M54.5847 193.217C55.0137 193.226 55.4304 193.354 55.7837 193.584C56.0421 193.816 56.2172 194.118 56.2842 194.449C56.3832 194.774 56.4049 195.116 56.3478 195.451C56.2908 195.785 56.1564 196.104 55.9542 196.383C55.7094 196.675 55.3892 196.902 55.0247 197.042C53.7515 197.563 52.2967 197.183 50.9712 196.805L45.7792 195.324C45.4624 195.263 45.1698 195.12 44.935 194.91C44.7923 194.728 44.7134 194.508 44.7095 194.281C44.7055 194.055 44.7767 193.833 44.913 193.647C45.1916 193.279 45.5724 192.991 46.013 192.816C47.63 192.071 49.4477 191.9 51.2242 191.868C51.8815 191.868 52.5332 191.72 52.9815 192.202C53.218 192.462 53.1767 192.741 53.5315 192.959C53.8574 193.12 54.2176 193.208 54.5847 193.217V193.217Z" fill="#2F2E41"/>
<path d="M59.0948 139.867C56.036 139.576 52.959 139.494 49.8877 139.622C49.685 139.62 49.4833 139.65 49.291 139.711C48.6145 139.971 48.51 140.81 48.444 141.497C48.1855 144.275 46.8902 146.866 46.244 149.592C45.866 151.304 45.6944 153.051 45.7325 154.8C45.7684 155.581 45.7537 156.364 45.6885 157.144C45.6033 157.841 45.4135 158.521 45.309 159.227C45.1907 160.156 45.1466 161.093 45.177 162.028C45.1486 163.497 45.2406 164.966 45.452 166.421C45.8727 168.905 45.1357 171.368 44.935 173.878C44.8331 175.632 44.6219 177.379 44.3025 179.109C44.1512 179.839 43.9615 180.562 43.857 181.299C43.549 183.489 43.9973 185.747 43.5133 187.905C43.285 188.915 42.878 190.051 43.4775 190.915C43.6672 191.189 43.9395 191.399 44.1457 191.66C44.2585 191.783 44.3355 191.933 44.3692 192.093C44.403 192.253 44.3923 192.419 44.3383 192.574C44.22 192.811 43.945 192.967 43.8762 193.22C43.7662 193.618 44.209 193.946 44.605 194.115C47.5888 195.389 51.436 194.49 53.449 192.045C53.1025 191.993 52.679 191.756 52.6707 191.426C52.6955 191.093 52.7715 190.766 52.8962 190.454C53.0592 189.893 53.0855 189.303 52.9732 188.731C52.8962 188.332 52.7532 187.949 52.6652 187.546C52.5813 187.103 52.5262 186.656 52.5002 186.207C52.3519 184.594 52.0162 183.002 51.4992 181.458C51.0015 179.961 51.6835 178.445 51.8595 176.883C51.9447 176.146 51.9062 175.381 52.1812 174.686C52.3435 174.272 52.6102 173.904 52.7725 173.49C53.1492 172.53 52.9265 171.465 52.6955 170.462C54.3235 167.684 54.8625 164.374 55.4757 161.25C55.8204 159.497 56.1651 157.743 56.5097 155.99C56.661 155.209 56.8287 154.399 57.3347 153.772C57.8704 156.094 58.0813 158.472 57.9617 160.846C57.8994 161.53 57.9086 162.218 57.9892 162.901C58.1157 163.653 58.4485 164.364 58.641 165.106C59.07 166.736 58.8197 168.452 58.916 170.131C58.9517 170.808 59.0452 171.485 59.0755 172.165C59.2102 175.162 58.1432 178.078 57.09 180.909C56.4437 182.645 56.3007 184.619 55.99 186.437C55.6985 188.179 55.4098 189.921 55.2613 191.678C55.1265 193.292 55.0688 195.04 54.0073 196.308C54.9753 196.904 55.979 197.511 57.112 197.716C58.4361 197.912 59.7908 197.664 60.9427 197.016C62.086 196.367 63.1081 195.543 63.9677 194.579C63.7422 194.506 63.6625 194.199 63.6405 193.977C63.3132 190.683 64.6332 187.468 65.1337 184.187C65.3865 182.543 65.4308 180.877 65.2657 179.224C65.2052 178.602 65.1145 177.982 65.087 177.357C64.9577 174.097 66.6132 170.959 66.5555 167.699C66.528 166.174 67.3805 164.666 67.7957 163.19C68.1587 161.888 68.1697 160.51 68.178 159.156L68.244 148.481C68.244 147.035 68.244 145.559 67.7545 144.195C67.1495 142.557 67.8397 140.672 67.9442 138.94C65.087 139.795 62.0802 140.11 59.0948 139.867V139.867Z" fill="#2F2E41"/>
<path d="M68.9013 109.197C70.0571 106.958 71.469 104.847 73.1115 102.901C73.4538 102.52 73.7663 102.116 74.0465 101.693C74.6378 100.724 74.8137 99.5808 75.1877 98.5184C76.2327 95.5397 78.8397 93.1468 79.475 90.0664C79.706 88.9494 80.4595 87.9834 80.9737 86.9418C81.3257 86.244 81.7107 85.5097 82.4092 85.1192C83.3085 84.5984 84.5515 84.8406 85.2995 85.5358C85.6594 85.8988 85.9262 86.3354 86.0793 86.8118C86.2324 87.2882 86.2676 87.7915 86.1822 88.2828C86.1374 88.7352 85.9517 89.1647 85.6487 89.517C85.25 89.9414 84.6532 90.1341 84.1142 90.3893C82.73 91.0553 81.6709 92.2018 81.158 93.5894C80.2395 96.1047 80.124 98.7658 78.958 101.19C77.792 103.614 76.4225 105.945 75.4132 108.426C74.844 109.835 74.3848 111.29 73.5488 112.592C72.7128 113.894 71.3983 114.985 69.8198 115.18C69.8219 114.239 69.666 113.304 69.3578 112.41C69.025 111.376 68.4008 110.155 68.9013 109.197Z" fill="#A0616A"/>
<path d="M51.8733 111.139C51.9435 109.298 51.6411 107.462 50.9823 105.728C50.7293 105.064 50.4185 104.39 50.457 103.684C50.49 103.031 50.8228 102.427 51.1198 101.836C52.1565 99.7917 52.8825 97.6228 53.5948 95.4616L54.9698 91.3892C55.4168 91.0765 55.8222 90.7137 56.177 90.3086C56.9095 89.5059 57.3938 88.5274 57.5767 87.4808C57.6638 86.9586 57.6403 86.4251 57.5076 85.9115C57.375 85.3979 57.1358 84.9143 56.804 84.489C56.657 84.2851 56.4656 84.1134 56.2427 83.9854C56.0197 83.8574 55.7704 83.7761 55.5115 83.7469C55.2833 83.7507 55.0584 83.7989 54.8507 83.8885C54.643 83.9781 54.457 84.1072 54.3043 84.2677C53.8486 84.7563 53.4974 85.324 53.2703 85.9394C52.8193 86.9392 52.3628 87.9808 52.4068 89.064C52.4425 89.9649 52.8 90.97 52.2418 91.7017C50.413 94.0998 49.0325 96.8572 47.5833 99.4793C47.217 100.105 46.9026 100.757 46.6428 101.43C46.2919 102.521 46.1258 103.658 46.1505 104.799C46.1368 106.934 46.4475 109.056 46.7555 111.173C46.948 112.496 47.2065 113.938 48.2653 114.818C49.368 113.493 50.4735 112.186 51.8733 111.139Z" fill="#A0616A"/>
<path d="M58.872 112.157C62.0235 112.157 64.5783 109.738 64.5783 106.754C64.5783 103.77 62.0235 101.351 58.872 101.351C55.7205 101.351 53.1657 103.77 53.1657 106.754C53.1657 109.738 55.7205 112.157 58.872 112.157Z" fill="#A0616A"/>
<path d="M56.1 112.444C55.9625 113.423 55.4097 114.295 54.8707 115.139C54.5435 115.659 54.131 116.214 53.4958 116.271C55.1475 117.094 56.8835 117.755 58.6767 118.245C59.2874 118.439 59.9275 118.536 60.5715 118.534C61.1165 118.496 61.65 118.366 62.1472 118.151C63.2352 117.7 64.2002 117.02 64.9693 116.162C65.7383 115.305 66.2911 114.294 66.5857 113.204C65.8762 113.222 65.1666 113.171 64.4682 113.05C64.0777 112.983 63.657 112.873 63.4287 112.569C63.2702 112.303 63.1957 112.001 63.2142 111.696C63.1867 110.795 63.1867 109.895 63.2142 108.994C61.8123 108.908 60.4058 109.072 59.0673 109.475C58.5173 109.645 57.9672 109.85 57.4035 109.983C57.057 110.064 56.1027 109.983 55.847 110.173C55.4592 110.462 56.2017 111.78 56.1 112.444Z" fill="#A0616A"/>
<path d="M58.6163 115.727C58.5528 115.017 58.2553 114.344 57.7657 113.803C57.2762 113.262 56.6194 112.88 55.8883 112.712C55.2998 112.589 54.6645 112.602 54.1365 112.326C53.2345 111.85 52.9623 110.689 52.0988 110.155C51.2353 109.621 50.0032 109.918 49.2497 110.595C48.4962 111.272 48.114 112.23 47.806 113.168C47.3448 114.438 47.0953 115.769 47.0662 117.112C47.0535 117.359 47.0947 117.605 47.1872 117.836C47.3499 118.104 47.5548 118.348 47.795 118.557C48.117 118.9 48.3573 119.305 48.4997 119.743C48.642 120.182 48.6831 120.644 48.62 121.099C48.5394 121.957 48.6223 122.822 48.8648 123.653C49.4148 125.947 49.9648 128.244 50.4048 130.558C50.5078 130.985 50.5431 131.424 50.5093 131.86C50.424 132.485 50.0555 133.082 50.1352 133.706C50.214 133.999 50.2728 134.295 50.3113 134.594C50.2933 134.821 50.2376 135.043 50.1463 135.253C49.5193 136.972 47.8335 140.903 47.8528 142.718C50.7815 142.007 55.099 141.849 58.1213 141.838C58.9541 141.827 59.7869 141.862 60.6155 141.942C62.6038 142.143 64.6388 142.692 66.5665 142.185C68.354 141.713 69.9408 140.362 71.7915 140.534C72.1903 139.536 71.7173 136.217 71.3433 135.211C69.8731 131.254 69.5875 126.989 70.5183 122.888C70.8565 121.414 70.3918 119.852 70.7685 118.386C70.8372 118.041 70.9764 117.712 71.1783 117.417C71.2807 117.27 71.421 117.149 71.586 117.067C71.751 116.985 71.9352 116.944 72.1215 116.948C72.1558 114.594 71.9253 112.244 71.434 109.936C71.2498 109.116 70.8675 108.147 69.9958 108.007C69.2093 107.882 68.5465 108.509 67.9168 108.973C67.2666 109.446 66.5161 109.78 65.7168 109.952C65.3946 109.987 65.0857 110.093 64.8148 110.262C64.4353 110.558 64.383 111.095 64.075 111.457C63.525 112.105 62.2958 112.048 61.9053 112.795C61.8173 113.018 61.7475 113.247 61.6963 113.48C61.5118 113.923 61.198 114.307 60.7915 114.587C60.1768 115.131 59.4295 115.523 58.6163 115.727V115.727Z" fill="#00BF00"/>
<path d="M63.5085 101.01C63.6047 100.654 63.591 100.229 63.2857 99.9895C63.1345 99.8776 62.9392 99.8359 62.777 99.7291C62.5483 99.5472 62.3612 99.323 62.227 99.0704C61.8156 98.5263 61.2138 98.1379 60.5285 97.9744C59.8432 97.8109 59.1189 97.8828 58.4843 98.1773C57.4915 98.6694 56.8893 99.6536 56.0093 100.32C55.5583 100.664 55.0385 100.919 54.5875 101.26C53.686 102 53.0442 102.983 52.7478 104.078C52.4593 105.166 52.2925 106.281 52.25 107.403C52.203 107.739 52.217 108.081 52.2913 108.413C52.3811 108.688 52.5176 108.947 52.6955 109.181C53.6003 110.483 54.7993 111.668 56.298 112.337C57.7968 113.006 59.62 113.118 61.0995 112.418C61.2478 112.359 61.3755 112.261 61.468 112.136C61.5528 111.946 61.572 111.736 61.523 111.535C61.4448 110.74 61.612 109.94 62.0042 109.233C62.2792 108.712 62.689 108.264 62.9117 107.723C63.1138 107.119 63.2013 106.486 63.1702 105.853C63.1922 104.221 63.074 102.588 63.5085 101.01Z" fill="#2D293D"/>
<path d="M80.201 67.7776H66.1513V81.0806H80.201V67.7776Z" fill="#6C63FF"/>
<path d="M75.075 79.1095C74.8715 79.4811 74.5339 79.7713 74.1235 79.9271C73.8809 80.0111 73.6254 80.0568 73.3672 80.0625C73.0882 80.0819 72.8079 80.0491 72.5422 79.9661C72.1884 79.8343 71.8847 79.6048 71.6705 79.3074C71.459 79.0099 71.2889 78.6879 71.1645 78.3492C71.081 78.1802 71.0458 77.9934 71.0627 77.8076C71.1703 77.7951 71.2743 77.7628 71.3687 77.7123C71.463 77.6618 71.546 77.5942 71.6127 77.5133C71.6523 77.432 71.6739 77.3438 71.6763 77.2543C71.6787 77.1648 71.6617 77.0757 71.6265 76.9926C71.61 76.9405 71.5935 76.891 71.5743 76.8442C71.533 76.7296 71.39 76.5135 71.489 76.4171C71.588 76.3208 71.819 76.3234 71.9097 76.2843C72.1787 76.1321 72.4658 76.0106 72.765 75.9224C73.0362 75.8882 73.3119 75.905 73.5762 75.9719C73.6124 75.9775 73.647 75.9899 73.678 76.0083C73.7127 76.0356 73.7385 76.0718 73.7522 76.1125C73.8292 76.2895 73.8732 76.4848 73.9337 76.6671C73.9865 76.8583 74.0908 77.0332 74.2362 77.1748C74.3618 77.2758 74.5039 77.3567 74.657 77.4144L75.0255 77.5732C75.0901 77.5976 75.149 77.6339 75.1987 77.68C75.2459 77.7429 75.2744 77.8166 75.2812 77.8935C75.3495 78.3093 75.2773 78.7348 75.075 79.1095V79.1095Z" fill="#A0616A"/>
<path opacity="0.1" d="M73.931 76.6749C73.6383 76.9627 73.2533 77.1507 72.8359 77.2096C72.4185 77.2684 71.9923 77.1949 71.6238 77.0004C71.6073 76.9483 71.5908 76.8988 71.5715 76.852C71.5303 76.7374 71.3873 76.5213 71.4863 76.4249C71.5853 76.3286 71.8162 76.3312 71.907 76.2921C72.176 76.1399 72.4631 76.0185 72.7623 75.9302C73.0335 75.896 73.3092 75.9128 73.5735 75.9797C73.6096 75.9853 73.6442 75.9977 73.6752 76.0161C73.71 76.0434 73.7358 76.0796 73.7495 76.1203C73.8265 76.3052 73.8705 76.4926 73.931 76.6749Z" fill="black"/>
<path d="M72.556 77.1513C73.61 77.1513 74.4645 76.3423 74.4645 75.3443C74.4645 74.3463 73.61 73.5372 72.556 73.5372C71.502 73.5372 70.6475 74.3463 70.6475 75.3443C70.6475 76.3423 71.502 77.1513 72.556 77.1513Z" fill="#A0616A"/>
<path d="M78.3447 81.078H69.3632C69.0882 80.4973 68.8408 79.9141 68.563 79.3334C68.5927 79.1953 68.6476 79.0631 68.7253 78.9429C68.765 78.8842 68.8194 78.8356 68.8837 78.8016C68.948 78.7675 69.0201 78.749 69.0938 78.7476C69.1735 78.7476 69.2643 78.7762 69.322 78.7215C69.3798 78.6669 69.3605 78.6226 69.4017 78.5861C69.443 78.5497 69.542 78.5497 69.619 78.5549C69.7016 78.5574 69.7836 78.5404 69.8575 78.5054C69.9315 78.4704 69.995 78.4185 70.0425 78.3544C70.072 78.3059 70.108 78.2612 70.1498 78.2216C70.222 78.1884 70.3005 78.1689 70.3807 78.1643C70.6035 78.1175 70.7355 77.9039 70.9033 77.7711C70.9435 77.7281 70.9962 77.697 71.0548 77.6818C71.1134 77.6665 71.1754 77.6677 71.2333 77.6852C71.2602 77.6984 71.2837 77.7171 71.302 77.7399C71.3471 77.8055 71.378 77.879 71.3927 77.956C71.4923 78.3885 71.7457 78.7755 72.1105 79.0522C72.3043 79.191 72.5285 79.2869 72.7666 79.3329C73.0046 79.3789 73.2506 79.3739 73.4863 79.3183C73.7221 79.2626 73.9417 79.1576 74.129 79.0111C74.3164 78.8646 74.4667 78.6803 74.569 78.4716C74.7019 78.1569 74.7781 77.8233 74.7945 77.4847C74.7945 77.4665 74.7945 77.4561 74.7945 77.4405C74.9064 77.4142 75.023 77.4115 75.1361 77.4327C75.2492 77.4538 75.356 77.4983 75.449 77.5628C75.6315 77.6952 75.8267 77.8111 76.032 77.9092C76.2767 78.0003 76.582 78.0003 76.7498 78.1695C76.8213 78.2372 76.8707 78.331 76.9615 78.3726C77.0179 78.3936 77.0772 78.4067 77.1375 78.4117C77.2911 78.451 77.4332 78.523 77.5528 78.6223C77.6724 78.7216 77.7665 78.8455 77.8277 78.9845C78.0268 79.4024 78.1567 79.8468 78.2127 80.3021L78.3447 81.078Z" fill="#F86D70"/>
<path d="M71.2387 72.4126C71.1059 72.5145 70.9933 72.6379 70.906 72.7771C70.7422 73.033 70.5134 73.246 70.2405 73.3968C70.126 73.4347 70.0218 73.4961 69.9352 73.5765C69.8927 73.6376 69.8655 73.707 69.8555 73.7796C69.7997 74.0322 69.7711 74.2896 69.7703 74.5477C69.7601 74.6776 69.7827 74.8079 69.8363 74.9279C69.8913 75.0372 69.9957 75.131 70.015 75.2507C70.019 75.3455 70.0079 75.4403 69.982 75.532C69.9691 75.58 69.9719 75.6306 69.9901 75.6771C70.0083 75.7236 70.0409 75.7638 70.0837 75.7923C70.1336 75.8091 70.1852 75.8205 70.2377 75.8262C70.5127 75.8835 70.6063 76.1907 70.6475 76.4433C70.741 76.4433 70.7822 76.3365 70.8042 76.2532L71.0792 75.0424C71.1122 74.9122 71.1618 74.7586 71.302 74.7144C71.3981 74.6949 71.4974 74.6949 71.5935 74.7144C71.973 74.7456 72.292 74.467 72.6632 74.3889C72.7829 74.3676 72.9048 74.3606 73.0262 74.368C73.3177 74.368 73.6588 74.4956 73.722 74.7534C73.722 74.7951 73.7385 74.8471 73.7797 74.868C73.8219 74.8796 73.8668 74.8796 73.909 74.868C74.0933 74.8498 74.2033 75.0476 74.2583 75.2091L74.4507 75.8001C74.481 75.8887 74.5305 75.9954 74.6323 76.0058C74.6788 76.0056 74.7237 75.9893 74.7586 75.9601C74.7935 75.9309 74.816 75.8907 74.822 75.847C74.8261 75.7587 74.8131 75.6705 74.7835 75.5866C74.6927 75.2013 74.833 74.8055 74.9182 74.4175C75.0035 74.0295 75.0172 73.5843 74.7312 73.2848C74.6267 73.1781 74.4893 73.0974 74.393 72.9828C74.2968 72.8682 74.2527 72.7459 74.1592 72.6391C73.7857 72.3288 73.3197 72.136 72.8255 72.0871C72.274 72.0409 71.7206 72.1544 71.2387 72.4126V72.4126Z" fill="#3F3D56"/>
<g opacity="0.1">
<path opacity="0.1" d="M74.6432 75.7245C74.5415 75.7245 74.492 75.6074 74.4618 75.5188L74.2692 74.9278C74.2142 74.7663 74.1042 74.5684 73.92 74.5841C73.8778 74.5957 73.833 74.5957 73.7908 74.5841C73.7495 74.5632 73.744 74.5138 73.733 74.4695C73.6697 74.2091 73.3288 74.0971 73.0373 74.0841C72.9157 74.0763 72.7936 74.0841 72.6743 74.1076C72.303 74.1831 71.984 74.4617 71.6045 74.4304C71.5081 74.4136 71.4093 74.4136 71.313 74.4304C71.1727 74.4773 71.1232 74.6283 71.0902 74.7611C70.994 75.1647 70.9005 75.5683 70.8152 75.9693C70.7932 76.0526 70.752 76.1542 70.6585 76.1594C70.6172 75.899 70.5237 75.5996 70.2487 75.5423C70.196 75.5378 70.1442 75.5264 70.0947 75.5084C70.0581 75.4898 70.0298 75.4593 70.015 75.4225C70.015 75.4589 69.9985 75.498 69.993 75.5345C69.9801 75.5825 69.9829 75.6331 70.0011 75.6796C70.0193 75.7261 70.0519 75.7663 70.0947 75.7948C70.1446 75.8116 70.1962 75.823 70.2487 75.8287C70.5237 75.886 70.6172 76.1932 70.6585 76.4458C70.752 76.4458 70.7932 76.339 70.8152 76.2557C70.9115 75.8521 71.005 75.4485 71.0902 75.0449C71.1232 74.9147 71.1727 74.7611 71.313 74.7169C71.4091 74.6974 71.5084 74.6974 71.6045 74.7169C71.984 74.7481 72.303 74.4695 72.6743 74.3914C72.7939 74.3701 72.9158 74.3631 73.0373 74.3705C73.3288 74.3705 73.6697 74.4981 73.733 74.7559C73.733 74.7976 73.7495 74.8496 73.7908 74.8705C73.833 74.8821 73.8778 74.8821 73.92 74.8705C74.1042 74.8523 74.2142 75.0501 74.2692 75.2116L74.4618 75.8027C74.492 75.8912 74.5415 75.9979 74.6432 76.0084C74.6898 76.0081 74.7347 75.9918 74.7696 75.9626C74.8045 75.9334 74.827 75.8932 74.833 75.8495C74.8389 75.779 74.8295 75.7082 74.8055 75.6412C74.7898 75.6684 74.7661 75.6907 74.7373 75.7055C74.7085 75.7202 74.6759 75.7269 74.6432 75.7245V75.7245Z" fill="black"/>
<path opacity="0.1" d="M70.015 74.9747C69.9957 74.8549 69.8912 74.7612 69.8362 74.6518C69.8001 74.5781 69.7787 74.4986 69.773 74.4175C69.773 74.4617 69.773 74.5034 69.773 74.5477C69.7628 74.6776 69.7854 74.8079 69.839 74.9278C69.883 75.0164 69.96 75.0945 69.9985 75.1882C70.0179 75.1186 70.0235 75.0462 70.015 74.9747V74.9747Z" fill="black"/>
<path opacity="0.1" d="M74.9293 74.1388C74.82 74.4762 74.7671 74.8276 74.7725 75.1804C74.8083 74.9241 74.8606 74.6702 74.9293 74.4201C74.975 74.2289 74.9908 74.0323 74.976 73.8368C74.9673 73.9383 74.9517 74.0392 74.9293 74.1388Z" fill="black"/>
</g>
<path d="M70.081 81.0779H67.9387C68.0332 80.5318 68.2024 79.9996 68.442 79.4948C68.4608 79.4429 68.4918 79.3957 68.5327 79.3568C68.5415 79.3476 68.5517 79.3397 68.563 79.3334C68.6262 79.2865 68.7142 79.2683 68.783 79.224C68.8517 79.1797 68.86 79.1329 68.9232 79.1146C69.1613 79.1093 69.3982 79.1464 69.6217 79.224C69.685 79.2307 69.747 79.2456 69.806 79.2683C69.9454 79.3415 70.0498 79.4627 70.0975 79.6067C70.279 80.0728 70.1415 80.578 70.081 81.0779Z" fill="#F86D70"/>
</g>
<defs>
<linearGradient id="paint0_linear" x1="102.611" y1="193.197" x2="102.611" y2="0.00101418" gradientUnits="userSpaceOnUse">
<stop stop-color="#808080" stop-opacity="0.25"/>
<stop offset="0.54" stop-color="#808080" stop-opacity="0.12"/>
<stop offset="1" stop-color="#808080" stop-opacity="0.1"/>
</linearGradient>
<linearGradient id="paint1_linear" x1="44677.8" y1="9625.52" x2="44677.8" y2="6574.06" gradientUnits="userSpaceOnUse">
<stop stop-color="#808080" stop-opacity="0.25"/>
<stop offset="0.54" stop-color="#808080" stop-opacity="0.12"/>
<stop offset="1" stop-color="#808080" stop-opacity="0.1"/>
</linearGradient>
<linearGradient id="paint2_linear" x1="17989.3" y1="71383.6" x2="24726.9" y2="71383.6" gradientUnits="userSpaceOnUse">
<stop stop-color="#808080" stop-opacity="0.25"/>
<stop offset="0.54" stop-color="#808080" stop-opacity="0.12"/>
<stop offset="1" stop-color="#808080" stop-opacity="0.1"/>
</linearGradient>
<clipPath id="clip0">
<rect width="187" height="200" fill="white"/>
</clipPath>
</defs>
</svg>
