<svg width="229" height="200" viewBox="0 0 229 200" fill="none" xmlns="http://www.w3.org/2000/svg">
<path d="M196.262 83.5687C186.285 40.2381 151.812 8.95949 111.347 7.70493C89.9549 7.04168 67.4442 14.8778 51.0548 42.2995C21.7569 91.3185 52.8552 125.192 74.5361 141.288C85.0106 149.08 94.4488 158.45 102.577 169.125C117.222 188.319 145.395 212.17 178.948 174.799C203.267 147.712 202.908 112.431 196.262 83.5687Z" fill="#94F37D"/>
<path d="M70.6743 199.909C77.6812 197.893 84.4181 196.179 90.885 194.767L88.4001 185.591C89.2646 185.061 93.007 190.371 93.007 190.371L89.8525 163.833C94.1733 164.897 96.1751 191.965 96.1751 191.965L101.078 182.946L98.6612 193.159C118.45 189.343 135.525 188.159 149.877 188.443L147.75 180.589C148.615 180.059 152.357 185.369 152.357 185.369L149.203 158.83C153.524 159.895 155.526 186.963 155.526 186.963L160.428 177.944L157.869 188.762C169.897 189.491 179.698 191.237 187.259 193.142C185.139 180.936 177.719 169.199 177.719 169.199C183.427 172.475 186.395 177.809 187.93 182.752C188.161 167.749 187.56 139.908 181.785 108.964C181.785 108.964 193.283 156.737 191.537 188.579L191.314 194.236C201.338 197.124 206.367 200 206.367 200L70.6743 199.909Z" fill="#94F37D"/>
<path d="M114.112 192.54C114.063 192.452 112.913 190.332 112.514 185.929C112.149 181.889 112.384 175.081 115.581 165.583C121.638 147.59 114.185 133.073 114.109 132.928L114.477 132.692C114.496 132.729 116.419 136.43 117.555 142.324C119.056 150.138 118.51 158.263 115.98 165.746C109.933 183.709 114.428 192.212 114.474 192.295L114.112 192.54Z" fill="#3F3D56"/>
<path d="M111.743 131.871C113.269 131.871 114.505 130.506 114.505 128.821C114.505 127.136 113.269 125.77 111.743 125.77C110.218 125.77 108.981 127.136 108.981 128.821C108.981 130.506 110.218 131.871 111.743 131.871Z" fill="#00AB00"/>
<path d="M120.455 143.136C121.98 143.136 123.217 141.77 123.217 140.085C123.217 138.4 121.98 137.034 120.455 137.034C118.929 137.034 117.693 138.4 117.693 140.085C117.693 141.77 118.929 143.136 120.455 143.136Z" fill="#3F3D56"/>
<path d="M114.505 150.646C116.031 150.646 117.268 149.28 117.268 147.595C117.268 145.91 116.031 144.544 114.505 144.544C112.98 144.544 111.743 145.91 111.743 147.595C111.743 149.28 112.98 150.646 114.505 150.646Z" fill="#00AB00"/>
<path d="M121.73 156.982C123.255 156.982 124.492 155.616 124.492 153.931C124.492 152.246 123.255 150.88 121.73 150.88C120.204 150.88 118.967 152.246 118.967 153.931C118.967 155.616 120.204 156.982 121.73 156.982Z" fill="#00AB00"/>
<path d="M112.381 166.838C113.906 166.838 115.143 165.472 115.143 163.787C115.143 162.102 113.906 160.737 112.381 160.737C110.855 160.737 109.619 162.102 109.619 163.787C109.619 165.472 110.855 166.838 112.381 166.838Z" fill="#3F3D56"/>
<path d="M115.78 192.652C115.78 192.652 113.018 185.143 121.305 179.511L115.78 192.652Z" fill="#3F3D56"/>
<path d="M112.383 192.516C112.383 192.516 111.126 184.53 101.397 184.599L112.383 192.516Z" fill="#3F3D56"/>
<path d="M154.682 66.0126C149.404 66.0126 145.126 71.2571 145.126 77.7266V85.9461H147.414L148.74 82.9007L148.408 85.9461H163.12L164.324 83.1776L164.023 85.9461H165.68V79.4923C165.68 72.0477 160.756 66.0126 154.682 66.0126Z" fill="#2F2E41"/>
<path d="M145.706 104.014L144.119 110.735L158.934 110.15L158.669 104.599C158.669 104.599 147.558 101.385 145.706 104.014Z" fill="#A0616A"/>
<path d="M131.42 130.896L136.182 142.584L140.68 136.448L136.976 128.266L131.42 130.896Z" fill="#A0616A"/>
<path d="M143.325 173.849L143.854 187.29H149.674L148.88 173.849H143.325Z" fill="#A0616A"/>
<path d="M136.447 118.624L139.092 128.266L143.06 175.017C143.06 175.017 146.764 176.186 149.41 174.725L149.939 168.297L150.997 131.481C150.997 131.481 156.024 128.559 155.494 124.468C154.965 120.377 153.643 114.826 153.643 114.826L136.447 118.624Z" fill="#2F2E41"/>
<path d="M144.648 184.075H143.06C143.06 184.075 138.563 189.335 136.976 189.919C135.388 190.504 127.187 195.471 133.801 196.348C140.415 197.224 144.648 193.426 144.648 193.426C144.648 193.426 146.764 194.887 149.674 193.718C152.584 192.549 150.997 189.043 150.997 189.043C150.997 189.043 149.52 183.699 149.465 183.741C149.41 183.783 147.822 186.413 144.648 184.075Z" fill="#2F2E41"/>
<path d="M152.849 84.1452C156.209 84.1452 158.934 81.1364 158.934 77.4248C158.934 73.7132 156.209 70.7043 152.849 70.7043C149.488 70.7043 146.764 73.7132 146.764 77.4248C146.764 81.1364 149.488 84.1452 152.849 84.1452Z" fill="#A0616A"/>
<path d="M161.844 86.1906L159.045 88.7677L158.669 89.1125L158.405 92.6188H148.087C148.087 92.6188 149.494 91.2718 150.801 89.878C150.828 89.8459 150.857 89.8108 150.889 89.7787C151.066 89.5888 151.225 89.4134 151.367 89.2557C151.444 89.168 151.518 89.0862 151.584 89.0102C151.693 88.8846 151.799 88.7648 151.904 88.645C151.906 88.6434 151.907 88.6414 151.907 88.6392C152.178 88.3262 152.432 87.9964 152.669 87.6515L152.672 87.6486C152.735 87.5556 152.794 87.4591 152.849 87.3594C153.643 85.8984 151.791 82.9765 151.791 82.9765L157.611 79.7623C157.815 82.9297 160.24 85.0452 161.325 85.84C161.643 86.0708 161.844 86.1906 161.844 86.1906Z" fill="#A0616A"/>
<path d="M176.129 135.279C172.161 136.448 171.897 127.682 171.897 127.682L166.481 115.718C165.336 113.19 164.549 110.483 164.147 107.692L162.902 99.0471L162.524 99.5468V99.5497L161.844 99.9237L157.711 92.6189L156.553 90.5735V88.236L160.521 86.1906H162.108C162.108 86.1906 162.143 86.1848 162.203 86.1789C162.934 86.0942 167.685 85.7435 167.928 90.8657C168.024 92.876 168.016 94.5415 167.966 95.8483C167.816 99.4637 168.126 103.084 168.889 106.604C169.169 107.873 169.475 108.976 169.78 109.566C170.838 111.611 174.542 127.682 174.542 127.682C174.542 127.682 180.098 134.11 176.129 135.279Z" fill="#A0616A"/>
<path d="M151.791 89.4047L150.788 91.4238L150.195 92.6188L147.293 98.4627C147.293 98.4627 146.471 99.2049 145.137 100.163C142.92 101.756 139.285 103.941 135.653 104.307C129.833 104.891 135.388 84.1452 135.388 84.1452C135.388 84.1452 137.24 75.9638 139.886 76.8404C142.531 77.717 140.415 80.6389 138.563 86.1906C136.711 91.7423 138.298 97.8783 138.298 97.8783C138.298 97.8783 143.854 94.0798 146.764 91.1579C148.28 89.6355 149.582 89.2236 150.478 89.1797H150.481C150.778 89.1617 151.076 89.1872 151.367 89.2557C151.513 89.2879 151.655 89.3378 151.791 89.4047V89.4047Z" fill="#A0616A"/>
<path d="M152.669 87.6515C152.658 87.6836 152.534 87.9437 151.584 89.0102C151.972 88.5834 152.334 88.1296 152.669 87.6515V87.6515Z" fill="#D0CDE1"/>
<path d="M162.77 99.1933L162.524 99.5498L158.669 106.936C158.669 106.936 153.643 104.891 149.939 104.307C148.921 104.113 147.874 104.259 146.932 104.725C145.99 105.192 145.196 105.959 144.65 106.928L145.706 102.261L145.137 100.163C145.071 99.918 144.994 99.6462 144.912 99.3394C144.119 96.4175 147.029 93.2034 147.029 93.2034L150.478 89.1799H150.481C150.778 89.1618 151.076 89.1874 151.367 89.2558C151.224 89.4136 151.066 89.5889 150.889 89.7789C150.857 89.811 150.828 89.8461 150.801 89.8782C149.788 91.0207 150.314 91.3392 150.788 91.4239C150.945 91.4504 151.103 91.4592 151.262 91.4502C152.365 91.6255 154.78 90.5561 156.553 89.662C157.759 89.0542 158.669 88.5283 158.669 88.5283L160.979 86.1907L161.325 85.8401C161.643 86.0709 161.844 86.1907 161.844 86.1907H162.108C162.108 86.1907 162.143 86.1849 162.203 86.179L160.999 87.1663C160.399 87.6578 159.92 88.3073 159.606 89.0555C159.291 89.8037 159.151 90.6269 159.198 91.4502V91.4502L162.77 99.1933Z" fill="#D0CDE1"/>
<path d="M148.352 107.521L144.484 109.189C144.484 109.189 123.484 100.216 120.309 107.521C117.134 114.826 131.42 132.357 131.42 132.357L137.769 129.143L135.124 120.377C135.124 120.377 150.468 134.695 156.817 126.806C163.166 118.916 158.934 107.761 158.934 107.761C158.934 107.761 154.965 104.307 148.352 107.521Z" fill="#2F2E41"/>
<path d="M137.24 139.37L134.859 141.415C134.859 141.415 136.976 150.765 136.182 152.226C135.388 153.687 133.801 157.778 136.711 157.486C139.621 157.194 142.796 152.226 143.06 150.473C143.325 148.72 145.177 143.461 145.177 143.461C145.177 143.461 148.352 135.279 145.971 134.987C143.59 134.695 139.797 134.499 139.797 134.499L137.24 139.37Z" fill="#2F2E41"/>
<path d="M157.399 69.2393C156.939 68.5573 156.343 68.0014 155.658 67.6148C154.972 67.2283 154.214 67.0214 153.445 67.0104H153.257C149.639 67.0104 146.707 70.6259 146.707 75.0859V75.0859H147.919L148.115 73.4401L148.402 75.0859H155.591L156.193 73.6936L156.043 75.0859H157.457C158.117 78.7059 157.169 82.326 154.612 85.9461H157.021L158.226 83.1614L157.925 85.9461H162.518L163.421 79.5413C163.421 74.7448 160.898 70.6774 157.399 69.2393Z" fill="#2F2E41"/>
<path d="M114.022 12.4993V0H110.028V12.4993H51.2244V0H47.2302V12.4993H22.8213V80.6325H138.431V12.4993H114.022ZM49.2273 28.4297C47.755 28.4297 46.3304 27.8522 45.2077 26.8001C44.0849 25.7481 43.337 24.2898 43.0972 22.6853C42.8573 21.0808 43.1412 19.4344 43.8981 18.0395C44.6551 16.6447 45.836 15.5921 47.2302 15.0694V24.9985H51.2244V15.0694C52.6187 15.5921 53.7996 16.6447 54.5565 18.0395C55.3135 19.4344 55.5974 21.0808 55.3575 22.6853C55.1177 24.2898 54.3697 25.748 53.247 26.8001C52.1243 27.8522 50.6997 28.4297 49.2273 28.4297L49.2273 28.4297ZM112.025 28.4297C110.552 28.4297 109.128 27.8522 108.005 26.8001C106.882 25.7481 106.134 24.2898 105.895 22.6853C105.655 21.0808 105.939 19.4344 106.696 18.0395C107.453 16.6447 108.633 15.5921 110.028 15.0694V24.9985H114.022V15.0694C115.416 15.5921 116.597 16.6447 117.354 18.0395C118.111 19.4344 118.395 21.0808 118.155 22.6853C117.915 24.2898 117.167 25.748 116.044 26.8001C114.922 27.8522 113.497 28.4297 112.025 28.4297V28.4297Z" fill="#3F3D56"/>
<path d="M48.3397 35.4146H28.3688V52.0802H48.3397V35.4146Z" fill="#D0CDE1"/>
<path d="M76.5209 35.4146H56.55V52.0802H76.5209V35.4146Z" fill="#D0CDE1"/>
<path d="M104.702 35.4146H84.7312V52.0802H104.702V35.4146Z" fill="#D0CDE1"/>
<path d="M132.883 35.4146H112.912V52.0802H132.883V35.4146Z" fill="#D0CDE1"/>
<path d="M48.3397 56.9819H28.3688V73.6476H48.3397V56.9819Z" fill="#D0CDE1"/>
<path d="M76.5209 56.9819H56.55V73.6476H76.5209V56.9819Z" fill="#D0CDE1"/>
<path d="M104.702 56.9819H84.7312V73.6476H104.702V56.9819Z" fill="#D0CDE1"/>
<path d="M132.883 56.9819H112.912V73.6476H132.883V56.9819Z" fill="#D0CDE1"/>
<path d="M94.6263 47.4977L88.3842 37.9769L90.0847 36.6173L94.8626 43.9052L113.147 23.1577L114.651 24.7749L94.6263 47.4977Z" fill="#00AB00"/>
<path d="M66.0013 70.5357L59.7592 61.0148L61.4594 59.6553L66.2376 66.9432L84.5218 46.1957L86.0258 47.8128L66.0013 70.5357Z" fill="#00AB00"/>
</svg>
