<svg width="140" height="180" viewBox="0 0 140 180" fill="none" xmlns="http://www.w3.org/2000/svg">
<path fill-rule="evenodd" clip-rule="evenodd" d="M17.128 70.4548C18.8357 64.7804 22.8457 60.3392 27.0082 56.27C35.1115 48.348 39.4698 43.45 42.3579 31.8616C44.0562 25.0463 45.7849 17.8241 51.172 12.8795C55.0945 9.27868 61.8455 6.25338 67.0911 8.83182C75.1612 13.6296 77.3283 23.4755 76.5146 32.2918C75.5058 43.2191 70.3813 49.9569 60.5366 53.9817C54.9895 56.2484 51.3022 59.2394 48.291 64.4511C45.8824 68.6186 44.4781 73.8371 41.4513 77.6151C36.9262 83.2626 31.2635 85.7731 24.2837 84.835C30.8213 72.8539 38.4597 60.7603 47.6728 50.6728C48.5351 49.6586 53.6218 45.7769 52.5959 44.0486C51.4657 42.1455 46.2439 49.2942 46.2808 49.251C43.6034 52.3122 41.1259 55.5652 38.693 58.8495C38.6992 58.8527 38.7064 58.8544 38.7132 58.8578C36.2083 62.2279 33.7234 65.6476 31.2859 69.1102C30.3001 70.5748 29.3406 72.0582 28.4221 73.5788C27.0742 75.81 24.935 82.1427 22.7292 83.5147C22.2573 83.8081 21.821 83.972 21.4131 84.0397C19.9082 86.4941 18.4438 88.9682 17.0512 91.4715C13.4142 98.0096 10.2925 104.913 8.8597 112.294C8.44163 114.449 8.7375 122.508 7.26105 124.063C4.56156 126.908 5.3524 121.43 5.51377 119.776C6.85463 106.083 11.7899 94.4177 18.9556 82.9062C16.7542 80.0425 16.4364 72.7539 17.128 70.4548Z" fill="#14131B"/>
<path fill-rule="evenodd" clip-rule="evenodd" d="M109.584 77.0708C106.738 73.7309 99.897 73.1642 95.713 73.3878C90.5357 73.6644 85.2179 74.9197 80.2922 76.4377C72.1782 78.9379 64.2939 83.5006 57.1478 87.9167C56.2866 88.4489 45.6768 94.8041 46.616 95.9195C47.5463 97.0245 57.9618 89.4754 60.283 88.1742C65.2363 85.397 69.7791 82.1125 75.2392 80.2785C80.8927 78.3791 86.8717 77.627 92.8166 77.6789C93.5796 77.6857 96.0684 77.1558 96.1221 78.2801C96.1747 79.3798 92.0567 78.806 91.3304 78.8126C88.3312 78.8401 85.3135 79.1212 82.3568 79.639C76.8172 80.6088 71.6093 82.5627 66.8648 85.5596C68.1886 88.6256 71.3622 90.0393 74.6913 89.272C77.5686 88.6085 80.3735 86.9729 83.1909 86.4999C85.1313 86.1743 87.0742 86.368 88.9559 86.9125C93.9191 88.3493 96.7817 91.2926 102.239 89.2452C106.517 87.6402 113.671 81.8739 109.584 77.0708Z" fill="#14131B"/>
<path fill-rule="evenodd" clip-rule="evenodd" d="M106.365 45.4639H105.019C105.113 43.762 105.236 42.0629 105.525 40.3801C106.607 34.0723 109.991 24.8077 117.413 23.7839C117.687 23.7457 118.694 23.7393 119.914 23.8098C120.492 23.4914 121.14 23.2989 121.822 23.2546C128.141 22.7956 135.198 27.8189 138.246 33.0464C140.703 37.2611 140.29 42.7956 138.772 47.2734C137.756 50.2712 135.537 54.5453 131.838 54.587C127.211 54.6391 126.987 49.003 126.898 45.7081C126.779 41.3276 126.217 37.5116 122.714 34.5258C121.898 33.8302 121.005 33.2182 120.181 32.5323C118.89 31.4587 117.463 30.3594 117.296 28.5832C117.067 26.1327 118.47 25.6917 120.614 26.147C120.979 26.2245 124.659 27.8518 124.114 26.5655C123.948 26.1726 123.34 25.8612 122.574 25.6279C120.589 25.4153 118.222 25.1686 117.541 25.316C110.198 26.9034 107.339 36.9265 106.58 43.2946C106.494 44.0157 106.425 44.7392 106.365 45.4639H106.365Z" fill="#14131B"/>
<path d="M118.807 39.7665L106.384 42.6074C106.077 42.6782 105.762 42.5926 105.499 42.3674C105.236 42.1421 105.045 41.7932 104.961 41.3881C104.064 37.0135 102.187 31.3066 104.009 28.4418C104.102 27.2366 104.535 26.1261 105.219 25.3416C105.903 24.5571 106.785 24.159 107.68 24.2302C109.9 19.5389 113.596 20.2433 116.094 23.1732C118.609 24.3448 119.557 26.4263 119.225 29.2509C120.311 30.5349 120.881 31.9812 121.001 33.5686C121.058 34.452 120.975 35.3416 120.757 36.178C120.539 37.0145 120.191 37.7786 119.738 38.4194L118.807 39.7665Z" fill="#2F2E41"/>
<path d="M117.404 56.8422L107.881 55.0303L105.976 51.2053C108.6 48.814 109.529 45.4739 108.321 40.9383L114.914 40.7369C114.605 44.776 115.577 47.9033 118.283 49.7961L117.404 56.8422Z" fill="#B28B67"/>
<path d="M117.15 172.421L113.692 171.96L110.249 123.115L108.947 171.803L105.55 171.642L99.8229 104.211H121.702L117.15 172.421Z" fill="#1D9101"/>
<path d="M111.788 44.5264C115.375 44.5264 118.283 40.4969 118.283 35.5264C118.283 30.5558 115.375 26.5263 111.788 26.5263C108.201 26.5263 105.293 30.5558 105.293 35.5264C105.293 40.4969 108.201 44.5264 111.788 44.5264Z" fill="#B28B67"/>
<path d="M125.121 105.711L98.4555 106.105C102.413 85.8113 104.78 66.9599 100.653 54.0001L107.246 49.658C110.425 54.1247 113.966 53.6642 117.795 49.2632L124.095 51.4343C123.016 68.4291 123.5 86.6307 125.121 105.711Z" fill="#1D9101"/>
<path d="M90.9346 84.5686L107.475 93.2371L111.173 94.6685C111.339 94.7325 111.512 94.7519 111.684 94.7254C111.855 94.699 112.02 94.6272 112.17 94.5145C112.319 94.4018 112.45 94.2504 112.554 94.0695C112.658 93.8886 112.734 93.6818 112.775 93.4617C112.849 93.0757 112.816 92.6681 112.682 92.311C112.549 91.9539 112.324 91.6705 112.047 91.511L108.207 89.9624L96.6433 81.1012L99.0585 72.7217L94.0085 69.158L90.9346 84.5686Z" fill="#B28B67"/>
<path d="M90.9346 68.5046C94.0621 70.1486 96.5497 72.9543 98.4991 76.7369L104.609 64.7804L100.245 54L90.9346 68.5046Z" fill="#1D9101"/>
<path d="M107.353 74.8421C106.806 74.8428 106.283 75.1154 105.897 75.6C105.511 76.0845 105.293 76.7415 105.293 77.4268L106.106 98.7838C106.106 99.469 106.324 100.126 106.71 100.611C107.096 101.095 107.619 101.368 108.166 101.368H117.462C118.008 101.368 118.531 101.095 118.917 100.611C119.304 100.126 119.521 99.469 119.521 98.7838L120.334 77.4268C120.334 76.7415 120.117 76.0845 119.73 75.6C119.344 75.1154 118.821 74.8428 118.275 74.8421H107.353Z" fill="#3F3D56"/>
<path d="M132.569 82.9228L118.096 90.7215L117.004 91.3099C116.969 91.3282 116.935 91.3439 116.898 91.3596L113.24 92.8163C112.772 93.002 112.125 92.1494 111.746 91.561C111.558 91.2774 111.452 90.9123 111.446 90.5318C111.441 90.1513 111.536 89.7807 111.715 89.4871C111.765 89.4082 111.821 89.3356 111.881 89.27C112.022 89.1215 112.188 89.0227 112.364 88.9823L116.019 88.0095C116.15 87.9747 116.276 87.911 116.392 87.8212L118.096 86.4769L126.945 79.5047C127.191 79.3111 127.378 79.0056 127.474 78.6426C127.569 78.2795 127.566 77.8826 127.465 77.5223L125.776 71.4942C125.672 71.1254 125.671 70.7181 125.773 70.3485C125.876 69.9789 126.074 69.6722 126.33 69.4857L129.129 67.4563C129.289 67.3401 129.466 67.2746 129.647 67.2646C129.829 67.2546 130.009 67.3004 130.176 67.3986C130.342 67.4968 130.49 67.6448 130.608 67.8315C130.725 68.0182 130.811 68.2386 130.856 68.4762L133.286 80.998C133.36 81.382 133.329 81.7897 133.197 82.1442C133.064 82.4988 132.841 82.7757 132.569 82.9228V82.9228Z" fill="#B28B67"/>
<path d="M133.325 66.4121C130.354 68.0956 127.991 70.9687 126.139 74.8421L120.334 62.5986L124.48 51.1579L133.325 66.4121Z" fill="#1D9101"/>
<path d="M117.725 36.9474L117.6 36.7931L117.776 36.5748L118.833 35.0527L118.967 35.1946L117.906 36.7228L117.725 36.9474Z" fill="white"/>
<path d="M105.414 36.1204L105.291 36.3191L106.45 37.6122L106.574 37.4134L105.414 36.1204Z" fill="white"/>
<path d="M118.219 38.7373L116.189 43.005L116.352 43.1439L118.382 38.8762L118.219 38.7373Z" fill="white"/>
<path d="M105.627 38.7369L105.464 38.8759L107.493 43.144L107.656 43.0051L105.627 38.7369Z" fill="white"/>
<path d="M118.283 86.2106V90.6328L117.048 91.2458C117.009 91.2649 116.97 91.2812 116.928 91.2976L112.791 92.8152C112.262 93.0086 111.53 92.1204 111.101 91.5074C110.889 91.2119 110.769 90.8315 110.763 90.4351C110.756 90.0387 110.864 89.6526 111.066 89.3467C111.124 89.2645 111.186 89.1889 111.254 89.1206C111.414 88.9659 111.602 88.8629 111.801 88.8208L115.934 87.8073C116.082 87.771 116.225 87.7047 116.356 87.6111L118.283 86.2106Z" fill="white"/>
<path d="M120.334 69.158H119.651C119.651 56.2947 117.66 47.3305 115.719 47.3305L115.548 46.4211C117.289 46.4211 118.398 50.1519 119.022 53.2818C119.868 57.5248 120.334 63.1631 120.334 69.158Z" fill="#3F3D56"/>
<path d="M104.585 66.3159H103.925C103.925 54.0443 105.861 46.4211 108.711 46.4211L108.546 47.3684C106.575 47.3684 104.585 53.2272 104.585 66.3159Z" fill="#3F3D56"/>
<path d="M119.993 72C120.937 72 121.702 70.9397 121.702 69.6316C121.702 68.3236 120.937 67.2632 119.993 67.2632C119.049 67.2632 118.283 68.3236 118.283 69.6316C118.283 70.9397 119.049 72 119.993 72Z" fill="#3F3D56"/>
<path d="M101.266 72H100.507C100.507 68.3434 102.04 65.3684 103.925 65.3684V66.3887C102.459 66.3887 101.266 68.9059 101.266 72Z" fill="#3F3D56"/>
<path d="M106.66 72H106.052C106.052 68.9059 105.098 66.3887 103.925 66.3887V65.3684C105.433 65.3684 106.66 68.3434 106.66 72Z" fill="#3F3D56"/>
<path d="M107.002 72.9474C107.568 72.9474 108.028 72.5232 108.028 72C108.028 71.4768 107.568 71.0527 107.002 71.0527C106.436 71.0527 105.976 71.4768 105.976 72C105.976 72.5232 106.436 72.9474 107.002 72.9474Z" fill="#3F3D56"/>
<path d="M101.19 72.9474C101.568 72.9474 101.874 72.5232 101.874 72C101.874 71.4768 101.568 71.0527 101.19 71.0527C100.813 71.0527 100.507 71.4768 100.507 72C100.507 72.5232 100.813 72.9474 101.19 72.9474Z" fill="#3F3D56"/>
<path d="M120.334 32.5372C117.38 31.8918 114.476 31.8032 111.653 32.6218C109.854 33.3604 107.695 33.2924 105.293 32.6838V26.5263L118.26 26.8196L120.334 32.5372Z" fill="#2F2E41"/>
<path d="M3.12987 38.1935L3.00609 38.3923L4.24423 39.7733L4.36802 39.5745L3.12987 38.1935Z" fill="white"/>
<path d="M16.8134 40.9857L14.646 45.5429L14.809 45.6818L16.9764 41.1246L16.8134 40.9857Z" fill="white"/>
<path d="M3.35561 40.9856L3.19254 41.1245L5.35942 45.6823L5.5225 45.5434L3.35561 40.9856Z" fill="white"/>
<path d="M16.527 39.7896L16.4092 39.5717L16.5872 39.2425L17.6502 36.9474L17.7767 37.1477L16.7093 39.4515L16.527 39.7896Z" fill="white"/>
<path d="M41.0231 180H81.3625V114.308C81.3625 110.83 78.8106 108 75.6739 108H46.7118C43.575 108 41.0231 110.83 41.0231 114.308V180Z" fill="#E6E6E6"/>
<path d="M43.758 177.158H78.6276V121.839C78.6276 118.909 76.4217 116.526 73.7103 116.526H48.6753C45.9639 116.526 43.758 118.909 43.758 121.839V177.158Z" fill="white"/>
<path d="M40.147 103.263C39.1221 103.263 38.2883 104.133 38.2883 105.202V110.798C38.2883 111.867 39.1221 112.737 40.147 112.737H82.2388C83.2636 112.737 84.0974 111.867 84.0974 110.798V105.202C84.0974 104.133 83.2636 103.263 82.2388 103.263H40.147Z" fill="#3F3D56"/>
<path d="M49.0812 170.526C48.5765 170.528 48.093 170.778 47.7361 171.222C47.3792 171.666 47.1781 172.267 47.1766 172.895V172.895C47.1781 173.522 47.3792 174.124 47.7361 174.568C48.0929 175.011 48.5765 175.261 49.0812 175.263H52.6463V170.526H49.0812Z" fill="#3F3D56"/>
<path d="M55.2942 170.526H52.6463V175.263H55.2942C55.6796 175.261 56.0489 175.011 56.3214 174.568C56.5939 174.124 56.7475 173.522 56.7487 172.895V172.895C56.7475 172.267 56.5939 171.666 56.3214 171.222C56.0489 170.778 55.6796 170.528 55.2942 170.526V170.526Z" fill="#1D9101"/>
<path opacity="0.2" d="M56.2433 170.526C56.4726 171.014 56.5992 171.64 56.5995 172.288V172.288C56.5984 173.003 56.4447 173.688 56.1722 174.194C55.8997 174.699 55.5304 174.984 55.145 174.986H52.6463V175.263H55.2942C55.6796 175.261 56.0489 174.976 56.3214 174.47C56.5939 173.965 56.7475 173.279 56.7487 172.564C56.7483 172.177 56.703 171.795 56.6158 171.443C56.5286 171.091 56.4015 170.779 56.2433 170.526V170.526Z" fill="black"/>
<path d="M63.9879 134.357C63.6566 133.879 63.2005 133.599 62.7193 133.58C62.238 133.561 61.7707 133.803 61.4194 134.253V134.253C61.07 134.707 60.866 135.331 60.8518 135.99C60.8376 136.649 61.0144 137.289 61.3436 137.77L63.6764 141.158L66.3207 137.745L63.9879 134.357Z" fill="#3F3D56"/>
<path d="M68.5571 140.705L66.2614 137.368L63.5858 140.823L65.8816 144.16C66.2168 144.644 66.6782 144.927 67.1652 144.946C67.6521 144.966 68.1249 144.721 68.4804 144.265V144.265C68.8339 143.806 69.0404 143.173 69.0548 142.506C69.0692 141.839 68.8903 141.192 68.5571 140.705V140.705Z" fill="#1D9101"/>
<path opacity="0.2" d="M69.0536 142.058C69.0106 142.72 68.8102 143.336 68.4894 143.793V143.793C68.1339 144.296 67.6609 144.566 67.1739 144.544C66.6868 144.522 66.2253 144.211 65.89 143.678L63.7231 140.211L63.5858 140.406L65.8821 144.08C66.2174 144.613 66.6789 144.925 67.166 144.946C67.653 144.968 68.126 144.698 68.4815 144.196C68.6732 143.922 68.8235 143.59 68.9222 143.221C69.0209 142.852 69.0658 142.455 69.0536 142.058V142.058Z" fill="black"/>
<path d="M54.4158 141.936C54.0845 141.458 53.6285 141.178 53.1472 141.159C52.666 141.14 52.1987 141.382 51.8474 141.832V141.832C51.498 142.286 51.2939 142.91 51.2797 143.569C51.2655 144.228 51.4423 144.868 51.7715 145.349L54.1044 148.737L56.7486 145.324L54.4158 141.936Z" fill="#3F3D56"/>
<path d="M58.9851 148.284L56.6893 144.948L54.0138 148.402L56.3095 151.738C56.6447 152.223 57.1062 152.506 57.5931 152.525C58.08 152.545 58.5529 152.3 58.9083 151.844V151.844C59.2619 151.384 59.4683 150.752 59.4827 150.085C59.4971 149.418 59.3182 148.771 58.9851 148.284V148.284Z" fill="#1D9101"/>
<path opacity="0.2" d="M59.4816 149.637C59.4385 150.299 59.2381 150.915 58.9174 151.372V151.372C58.5618 151.875 58.0889 152.145 57.6018 152.123C57.1148 152.101 56.6532 151.79 56.3179 151.257L54.151 147.789L54.0138 147.985L56.3101 151.659C56.6453 152.192 57.1069 152.503 57.5939 152.525C58.081 152.547 58.5539 152.277 58.9095 151.774V151.774C59.1011 151.501 59.2514 151.169 59.3501 150.8C59.4489 150.431 59.4937 150.034 59.4816 149.637Z" fill="black"/>
<path d="M63.9879 148.568C63.6566 148.089 63.2005 147.81 62.7193 147.791C62.238 147.771 61.7707 148.013 61.4194 148.464V148.464C61.07 148.917 60.866 149.542 60.8518 150.201C60.8376 150.86 61.0144 151.499 61.3436 151.98L63.6764 155.368L66.3207 151.956L63.9879 148.568Z" fill="#3F3D56"/>
<path d="M68.5571 154.915L66.2614 151.579L63.5858 155.034L65.8816 158.37C66.2168 158.854 66.6782 159.137 67.1652 159.157C67.6521 159.177 68.1249 158.932 68.4804 158.475V158.475C68.8339 158.016 69.0404 157.384 69.0548 156.717C69.0692 156.05 68.8903 155.402 68.5571 154.915V154.915Z" fill="#1D9101"/>
<path opacity="0.2" d="M69.0536 156.846C69.0106 157.376 68.8102 157.869 68.4894 158.235C68.1339 158.637 67.6609 158.853 67.1739 158.835C66.6868 158.818 66.2253 158.569 65.89 158.142L63.7231 155.368L63.5858 155.525L65.8821 158.464C66.2174 158.89 66.6789 159.14 67.166 159.157C67.653 159.174 68.126 158.958 68.4815 158.556V158.556C68.6732 158.338 68.8235 158.072 68.9222 157.777C69.0209 157.481 69.0658 157.164 69.0536 156.846V156.846Z" fill="black"/>
<path d="M69.2606 163.88C69.5598 163.474 69.7318 162.92 69.7391 162.338C69.7463 161.756 69.5882 161.193 69.2992 160.773V160.773C69.0085 160.356 68.6112 160.116 68.1941 160.106C67.777 160.095 67.3739 160.316 67.073 160.719L64.9533 163.576L67.1409 166.737L69.2606 163.88Z" fill="#3F3D56"/>
<path d="M65.303 169.816L67.6881 166.603L65.1573 162.947L62.7722 166.161C62.4261 166.63 62.2271 167.271 62.2187 167.945C62.2103 168.618 62.3932 169.268 62.7275 169.754V169.754C63.0638 170.237 63.5235 170.514 64.0061 170.526C64.4886 170.538 64.9549 170.282 65.303 169.816V169.816Z" fill="#1D9101"/>
<path opacity="0.2" d="M64.3571 170.522C63.8721 170.47 63.4184 170.2 63.0798 169.762V169.762C62.7074 169.276 62.5036 168.625 62.513 167.952C62.5223 167.279 62.744 166.637 63.1297 166.168L65.637 163.135L65.4924 162.947L62.8354 166.162C62.4497 166.631 62.228 167.272 62.2187 167.946C62.2094 168.619 62.4132 169.27 62.7856 169.755V169.755C62.9881 170.017 63.2334 170.221 63.5046 170.353C63.7758 170.486 64.0666 170.543 64.3571 170.522Z" fill="black"/>
<path d="M56.9536 156.301C57.2529 155.895 57.4249 155.341 57.4321 154.759C57.4394 154.177 57.2812 153.614 56.9923 153.194C56.7016 152.777 56.3043 152.537 55.8872 152.527C55.47 152.517 55.067 152.737 54.7661 153.14L52.6463 155.997L54.8339 159.158L56.9536 156.301Z" fill="#3F3D56"/>
<path d="M52.3124 162.237L54.6975 159.024L52.1667 155.368L49.7816 158.582C49.4354 159.051 49.2364 159.692 49.228 160.366C49.2196 161.039 49.4026 161.689 49.7369 162.175V162.175C50.0732 162.658 50.5328 162.935 51.0154 162.947C51.498 162.959 51.9643 162.704 52.3124 162.237V162.237Z" fill="#1D9101"/>
<path opacity="0.2" d="M51.3665 162.943C50.8814 162.891 50.4278 162.621 50.0892 162.183C49.7168 161.697 49.513 161.046 49.5223 160.373C49.5317 159.7 49.7534 159.058 50.139 158.589L52.6463 155.556L52.5018 155.368L49.8447 158.583C49.4591 159.052 49.2374 159.693 49.2281 160.367C49.2187 161.04 49.4225 161.691 49.7949 162.176V162.176C49.9975 162.438 50.2427 162.642 50.5139 162.774C50.7851 162.907 51.0759 162.964 51.3665 162.943V162.943Z" fill="black"/>
<path d="M74.6619 147.367C75.0039 146.903 75.2005 146.269 75.2088 145.604C75.2171 144.939 75.0363 144.296 74.7061 143.816V143.816C74.3739 143.339 73.9198 143.065 73.4431 143.053C72.9664 143.042 72.5058 143.294 72.1618 143.754L69.7393 147.02L72.2394 150.632L74.6619 147.367Z" fill="#3F3D56"/>
<path d="M70.7728 152.852L73.1579 150.04L70.6271 146.842L68.242 149.654C67.8958 150.065 67.6968 150.626 67.6884 151.215C67.68 151.804 67.863 152.373 68.1973 152.798V152.798C68.5336 153.22 68.9932 153.463 69.4758 153.473C69.9584 153.484 70.4247 153.26 70.7728 152.852Z" fill="#1D9101"/>
<path opacity="0.2" d="M69.8269 153.47C69.3418 153.424 68.8881 153.188 68.5496 152.805V152.805C68.1772 152.38 67.9734 151.81 67.9827 151.221C67.9921 150.632 68.2138 150.071 68.5994 149.66L71.1067 147.006L70.9622 146.842L68.3051 149.655C67.9195 150.065 67.6978 150.626 67.6885 151.216C67.6791 151.805 67.8829 152.374 68.2553 152.799V152.799C68.4579 153.028 68.7031 153.207 68.9743 153.322C69.2455 153.438 69.5363 153.488 69.8269 153.47Z" fill="black"/>
<path d="M71.1167 165.62C70.8268 165.142 70.4277 164.863 70.0066 164.843C69.5856 164.824 69.1767 165.066 68.8693 165.517V165.517C68.5636 165.97 68.385 166.594 68.3726 167.253C68.3601 167.912 68.5148 168.552 68.8029 169.033L70.8441 172.421L73.1579 169.009L71.1167 165.62Z" fill="#3F3D56"/>
<path d="M75.4566 171.968L73.4478 168.632L71.1067 172.087L73.1155 175.423C73.4088 175.907 73.8126 176.19 74.2387 176.21C74.6647 176.229 75.0785 175.984 75.3895 175.528V175.528C75.6988 175.069 75.8795 174.437 75.8921 173.77C75.9047 173.102 75.7481 172.455 75.4566 171.968Z" fill="#1D9101"/>
<path d="M58.5181 165.62C58.1868 165.142 57.7308 164.863 57.2495 164.843C56.7683 164.824 56.301 165.066 55.9497 165.517V165.517C55.6003 165.97 55.3962 166.594 55.382 167.253C55.3678 167.912 55.5446 168.552 55.8738 169.033L58.2067 172.421L60.851 169.009L58.5181 165.62Z" fill="#3F3D56"/>
<path d="M63.1497 171.968L61.1409 168.632L58.7998 172.087L60.8086 175.423C61.1019 175.907 61.5057 176.19 61.9317 176.21C62.3578 176.229 62.7715 175.984 63.0825 175.528V175.528C63.3919 175.069 63.5726 174.437 63.5851 173.77C63.5977 173.102 63.4412 172.455 63.1497 171.968V171.968Z" fill="#1D9101"/>
<path d="M62.2184 157.263C62.2185 158.137 62.0008 158.984 61.6021 159.66C61.2034 160.337 60.6482 160.802 60.0305 160.977C59.6695 161.078 59.2976 161.078 58.9366 160.977C58.3189 160.802 57.7638 160.337 57.3651 159.66C56.9664 158.983 56.7487 158.137 56.7487 157.263C56.7487 156.39 56.9664 155.543 57.3651 154.866C57.7638 154.189 58.3189 153.724 58.9366 153.549C59.2976 153.448 59.6695 153.448 60.0305 153.549C60.6482 153.724 61.2034 154.189 61.6021 154.866C62.0008 155.543 62.2185 156.39 62.2184 157.263V157.263Z" fill="#1D9101"/>
<path opacity="0.2" d="M60.1672 153.549V160.977C59.9416 161.078 59.7092 161.078 59.4835 160.977V153.549C59.7092 153.448 59.9416 153.448 60.1672 153.549Z" fill="black"/>
<path d="M62.9021 143.526C62.9022 144.291 62.7389 145.032 62.4399 145.624C62.1409 146.216 61.7245 146.623 61.2612 146.776C60.9904 146.864 60.7115 146.864 60.4407 146.776C59.9775 146.623 59.5611 146.216 59.2621 145.624C58.9631 145.032 58.7998 144.291 58.7998 143.526C58.7998 142.762 58.9631 142.021 59.2621 141.429C59.5611 140.837 59.9775 140.43 60.4407 140.277C60.7115 140.188 60.9904 140.188 61.2612 140.277C61.7245 140.43 62.1409 140.837 62.4399 141.429C62.7389 142.021 62.9022 142.762 62.9021 143.526V143.526Z" fill="#1D9101"/>
<path opacity="0.2" d="M61.5347 140.277V146.776C61.0834 146.864 60.6185 146.864 60.1672 146.776V140.277C60.6185 140.188 61.0834 140.188 61.5347 140.277Z" fill="black"/>
<path d="M62.9021 163.421C62.9022 164.185 62.7389 164.926 62.4399 165.519C62.1409 166.111 61.7245 166.518 61.2612 166.67C60.9904 166.759 60.7115 166.759 60.4407 166.67C59.9775 166.517 59.5611 166.11 59.2621 165.518C58.9631 164.926 58.7998 164.185 58.7998 163.421C58.7998 162.657 58.9631 161.916 59.2621 161.324C59.5611 160.732 59.9775 160.325 60.4407 160.172C60.7115 160.083 60.9904 160.083 61.2612 160.172C61.7245 160.324 62.1409 160.731 62.4399 161.324C62.7389 161.916 62.9022 162.657 62.9021 163.421V163.421Z" fill="#1D9101"/>
<path opacity="0.2" d="M61.5347 160.172V166.67C61.0834 166.759 60.6185 166.759 60.1672 166.67V160.172C60.6185 160.083 61.0834 160.083 61.5347 160.172Z" fill="black"/>
<path d="M69.7393 172.895C69.7394 173.659 69.5489 174.4 69.2001 174.992C68.8512 175.584 68.3654 175.991 67.8249 176.144C67.509 176.233 67.1836 176.233 66.8677 176.144C66.3272 175.991 65.8415 175.584 65.4927 174.992C65.1438 174.4 64.9533 173.659 64.9533 172.895C64.9533 172.13 65.1438 171.389 65.4927 170.797C65.8415 170.205 66.3272 169.798 66.8677 169.645C67.1836 169.557 67.509 169.557 67.8249 169.645C68.3654 169.798 68.8512 170.205 69.2001 170.797C69.5489 171.389 69.7394 172.13 69.7393 172.895V172.895Z" fill="#1D9101"/>
<path opacity="0.2" d="M67.6882 169.645V176.144C67.4625 176.233 67.2301 176.233 67.0044 176.144V169.645C67.2301 169.557 67.4625 169.557 67.6882 169.645Z" fill="black"/>
<path d="M75.1602 155.35C75.5574 155.88 75.8102 156.584 75.8758 157.343C75.9414 158.102 75.8157 158.869 75.5201 159.514C75.3469 159.891 75.121 160.216 74.8559 160.469C74.4014 160.902 73.8529 161.104 73.3032 161.041C72.7535 160.979 72.2363 160.655 71.8392 160.124C71.442 159.594 71.1893 158.89 71.1237 158.131C71.0581 157.372 71.1837 156.605 71.4793 155.96C71.6525 155.583 71.8783 155.259 72.1435 155.005C72.598 154.572 73.1465 154.369 73.6962 154.432C74.2459 154.495 74.7631 154.819 75.1602 155.35V155.35Z" fill="#1D9101"/>
<path opacity="0.2" d="M72.3524 154.421L75.2091 159.112C75.0625 159.504 74.8714 159.841 74.6471 160.105L71.7905 155.414C71.937 155.023 72.1281 154.685 72.3524 154.421V154.421Z" fill="black"/>
<path d="M76.423 162.929C76.8769 163.459 77.1658 164.163 77.2408 164.922C77.3158 165.681 77.1722 166.448 76.8343 167.093C76.6363 167.47 76.3782 167.794 76.0752 168.048C75.5557 168.481 74.9289 168.683 74.3006 168.62C73.6724 168.558 73.0814 168.233 72.6275 167.703C72.1737 167.173 71.8848 166.469 71.8099 165.71C71.7349 164.951 71.8784 164.184 72.2162 163.539C72.4142 163.162 72.6723 162.837 72.9753 162.584C73.4947 162.151 74.1216 161.948 74.7499 162.011C75.3781 162.074 75.9692 162.398 76.423 162.929V162.929Z" fill="#1D9101"/>
<path opacity="0.2" d="M73.0361 162L75.8928 166.691C75.7462 167.083 75.5552 167.42 75.3309 167.684L72.4742 162.993C72.6208 162.602 72.8118 162.264 73.0361 162V162Z" fill="black"/>
<path d="M53.1765 164.824C53.6305 165.354 53.9194 166.058 53.9944 166.817C54.0693 167.576 53.9257 168.343 53.5879 168.988C53.3899 169.365 53.1318 169.689 52.8288 169.943C52.3093 170.376 51.6824 170.578 51.0542 170.515C50.426 170.452 49.835 170.128 49.3811 169.598C48.9272 169.067 48.6384 168.363 48.5634 167.604C48.4885 166.846 48.632 166.079 48.9698 165.433C49.1678 165.057 49.4259 164.732 49.7288 164.478C50.2483 164.045 50.8752 163.843 51.5034 163.906C52.1317 163.969 52.7227 164.293 53.1765 164.824V164.824Z" fill="#1D9101"/>
<path opacity="0.2" d="M50.0145 163.895L54.0138 168.586C53.8086 168.977 53.5411 169.315 53.2271 169.579L49.2278 164.888C49.433 164.496 49.7004 164.159 50.0145 163.895V163.895Z" fill="black"/>
<path opacity="0.2" d="M44.4417 103.263H43.758V112.737H44.4417V103.263Z" fill="black"/>
<path opacity="0.2" d="M50.5952 103.263H49.2278V112.737H50.5952V103.263Z" fill="black"/>
<path opacity="0.2" d="M56.0649 103.263H55.3812V112.737H56.0649V103.263Z" fill="black"/>
<path opacity="0.2" d="M61.5347 103.263H60.851V112.737H61.5347V103.263Z" fill="black"/>
<path opacity="0.2" d="M67.0044 103.263H66.3207V112.737H67.0044V103.263Z" fill="black"/>
<path opacity="0.2" d="M73.1579 103.263H71.7905V112.737H73.1579V103.263Z" fill="black"/>
<path opacity="0.2" d="M78.6277 103.263H77.9439V112.737H78.6277V103.263Z" fill="black"/>
</svg>
