<svg width="140" height="181" viewBox="0 0 140 181" fill="none" xmlns="http://www.w3.org/2000/svg">
<path d="M70 180.169C108.66 180.169 140 146.518 140 105.007C140 63.4955 108.66 29.8441 70 29.8441C31.3401 29.8441 0 63.4955 0 105.007C0 146.518 31.3401 180.169 70 180.169Z" fill="#C5CFD6"/>
<path fill-rule="evenodd" clip-rule="evenodd" d="M67.1312 26.4018C64.8271 23.8218 63.2677 20.66 63.5283 17.117C64.2791 6.90891 79.1742 9.15457 82.0717 14.3068C84.9691 19.4589 84.6248 32.5279 80.8802 33.4488C79.3868 33.816 76.2055 32.9164 72.9676 31.0546L75 44.7712H63L67.1312 26.4018Z" fill="#B28B67"/>
<path d="M70 180.169C108.66 180.169 140 146.518 140 105.007C140 63.4955 108.66 29.8441 70 29.8441C31.3401 29.8441 0 63.4955 0 105.007C0 146.518 31.3401 180.169 70 180.169Z" fill="#94F37D"/>
<path fill-rule="evenodd" clip-rule="evenodd" d="M59.2214 11.4589C58.8926 11.096 58.7132 10.5781 58.558 10.0863C58.3969 9.57546 58.2403 9.05934 58.1333 8.52762C57.9195 7.46519 57.9174 6.2434 58.5982 5.41843C59.1441 4.75689 59.9633 4.46017 60.7193 4.39569C61.2229 4.35269 61.7403 4.43122 62.2231 4.60795C62.7022 4.78326 63.1151 5.13267 63.5795 5.34954C63.5972 4.20463 63.7734 3.00666 64.295 2.02909C64.797 1.0885 65.5974 0.560674 66.5089 0.421033C67.4444 0.277726 68.3684 0.521475 69.2058 1.02575C69.4156 1.15204 69.6233 1.28435 69.8221 1.4341C69.9885 1.55949 70.1616 1.71051 70.3569 1.76151C70.5747 1.81842 70.6825 1.67841 70.824 1.50155C70.99 1.29418 71.1769 1.11153 71.3747 0.949609C72.2494 0.23378 73.3971 -0.0605418 74.4104 0.368532C74.8773 0.566219 75.3313 0.901949 75.6481 1.36458C75.9304 1.77697 76.1318 2.43114 76.5215 2.71845C76.6869 2.84042 76.8037 2.67883 76.9543 2.5594C77.1804 2.37995 77.3961 2.18194 77.6251 2.00737C77.9465 1.76212 78.2946 1.57867 78.6674 1.48265C79.2132 1.34207 79.9673 1.37502 80.1234 2.17084C80.1819 2.46977 80.137 2.78947 80.1181 3.09066C80.0921 3.50422 80.0651 3.91764 80.0328 4.3306C80.0083 4.64414 79.9773 4.94697 79.9242 5.25487C79.8959 5.419 79.8072 5.72497 79.8704 5.88934C79.9493 6.09479 80.314 5.97799 80.4697 5.98513C80.7774 5.99928 81.0863 6.05934 81.3708 6.20571C81.5913 6.31916 81.823 6.48602 81.9161 6.76737C81.9733 6.9402 81.9582 7.11771 81.9312 7.29553C81.8988 7.5089 81.9358 7.62209 81.96 7.8374C82.3733 7.61085 83.8051 7.10752 83.9854 7.93202C84.0453 8.20655 83.9087 8.51676 83.8045 8.74828C83.6217 9.15438 83.382 9.52554 83.137 9.87951C82.626 10.6179 82.016 11.2549 81.3596 11.7996C82.1287 12.1803 82.3293 13.303 81.6635 13.972C81.3695 14.2674 80.9742 14.3331 80.6034 14.3142C80.4677 14.3073 80.272 14.2492 80.1652 14.2755C80.1077 14.2897 80.0462 14.344 79.9666 14.35C79.4432 14.3899 78.8524 14.2495 78.3408 14.1202C77.4292 13.8898 76.5662 13.4089 75.8613 12.6765C75.6806 12.4886 75.5312 12.3805 75.2879 12.3833C75.0746 12.3857 74.8654 12.4508 74.6524 12.4568C74.0887 12.4728 73.5805 12.166 73.057 11.9618C73.0249 12.7491 72.8235 13.6163 72.5343 14.3245C72.2983 14.9022 71.8058 14.9861 71.3218 15.0368C69.7739 15.1989 68.2205 15.018 66.6707 15.0204C68.171 15.3979 69.7213 15.5536 71.2082 15.9979C71.8804 16.1987 71.3672 16.703 71.0797 17.0527C70.6065 17.6284 70.2546 18.3418 70.0106 19.0934C69.2767 18.0282 67.9794 17.3264 66.8302 17.6536C65.5603 18.0151 64.6662 19.927 65.4782 21.3016C65.9496 22.0995 66.8009 22.4076 67.5093 22.7504C66.9567 23.3901 66.823 24.3349 66.4905 25.1307C66.3264 25.5232 66.0962 25.9669 65.7293 26.1036C65.5936 26.1543 65.4344 26.1586 65.3273 26.2818C65.1946 26.4343 65.1631 26.6048 64.9937 26.7359C64.3178 27.2591 63.2619 27.2189 62.6628 26.536C62.121 25.9186 62.262 24.9414 62.7145 24.3153C61.9942 23.9811 60.682 23.5512 60.9682 22.3017C59.4075 22.1863 55.618 19.3681 57.7128 17.3087C56.5632 16.5852 55.507 14.8174 56.2454 13.259C56.8141 12.0589 58.1364 11.5224 59.2214 11.4589Z" fill="#191847"/>
<path fill-rule="evenodd" clip-rule="evenodd" d="M97.7042 90.7582L112.279 107.088C116.367 108.959 119.751 111.13 122.43 113.6C123.048 114.456 123.761 116.14 121.037 115.609C118.313 115.078 115.429 114.68 114.986 115.88C114.543 117.08 116.122 118.709 115.27 120.305C114.701 121.369 112.443 118.361 108.494 111.284L93.7212 101.54L97.7042 90.7582ZM31.7077 83.6918L40.2592 85.3331C31.0799 111.655 26.1588 125.574 25.4958 127.093C24.0042 130.511 25.7585 136.465 26.4443 139.617C22.9784 140.939 24.0853 133.863 19.703 135.628C15.703 137.239 12.4021 140.891 8.44052 136.549C7.95346 136.014 7.54317 134.269 9.09129 133.251C12.9481 130.717 18.6109 126.079 19.4912 124.369C20.6916 122.039 24.7637 108.479 31.7077 83.6918Z" fill="#B28B67"/>
<path fill-rule="evenodd" clip-rule="evenodd" d="M67.9386 37.7722L73.2302 35.4533C80.4083 59.2151 91.1136 82.2058 109 101.625L104.577 111.737C88.8572 99.467 73.9769 89.9345 67.9386 71.5219C65.912 65.3421 67.7732 45.1613 67.9386 37.7722Z" fill="#C5CFD6"/>
<path fill-rule="evenodd" clip-rule="evenodd" d="M50 104.534C64.8244 106.66 76.4929 106.66 85.0054 104.534C86.0601 104.27 86.2264 101.882 85.7373 100.261C78.121 75.0157 72.8982 52.9879 72.8982 35.4533C71.5006 36.4064 69.0549 36.5492 65.5608 35.8818C56.1707 53.9518 51.8544 74.6851 50 104.534Z" fill="#323337"/>
<path fill-rule="evenodd" clip-rule="evenodd" d="M63.0506 34.6598H67.0534C67.9854 41.8567 70.9251 139.314 80 171.194H30.897C31.9616 141.989 40.359 106.906 48.8657 77.5494C41.3437 86.5867 34.7876 101.9 29.1976 123.489L20 120.389C26.8387 81.699 40.899 53.2617 62.1809 35.0771C62.227 34.9374 62.2729 34.7982 62.3185 34.6598H62.6727C62.8032 34.5499 62.9338 34.4404 63.0647 34.3314L63.0506 34.6598Z" fill="#DDE3E9"/>
<path d="M83 56.768L84.1804 61.91H88L84.9098 65.0879L86.0902 70.2298L83 67.0519L79.9098 70.2298L81.0902 65.0879L78 61.91H81.8196L83 56.768Z" fill="#FFB23E"/>
<path d="M94.5 56.768L95.7984 61.91H100L96.6008 65.0879L97.8992 70.2298L94.5 67.0519L91.1008 70.2298L92.3992 65.0879L89 61.91H93.2016L94.5 56.768Z" fill="#FFB23E"/>
<path d="M107 56.768L108.18 61.91H112L108.91 65.0879L110.09 70.2298L107 67.0519L103.91 70.2298L105.09 65.0879L102 61.91H105.82L107 56.768Z" fill="#FFB23E"/>
<path d="M119 56.768L120.18 61.91H124L120.91 65.0879L122.09 70.2298L119 67.0519L115.91 70.2298L117.09 65.0879L114 61.91H117.82L119 56.768Z" fill="#FFB23E"/>
<path d="M132 56.768L133.18 61.91H137L133.91 65.0879L135.09 70.2298L132 67.0519L128.91 70.2298L130.09 65.0879L127 61.91H130.82L132 56.768Z" fill="#FFB23E"/>
</svg>
