<svg width="140" height="181" viewBox="0 0 140 181" fill="none" xmlns="http://www.w3.org/2000/svg">
<path d="M70 16.0954L130.622 139.549H9.37822L70 16.0954Z" fill="#94F37D"/>
<path fill-rule="evenodd" clip-rule="evenodd" d="M46.1078 25.5082C43.3941 21.829 41.5574 17.32 41.8643 12.2676C42.7486 -2.28981 60.2929 0.912636 63.7056 8.25998C67.1184 15.6073 66.7128 34.2445 62.3022 35.5576C60.5432 36.0813 56.7961 34.7985 52.9824 32.1434L55.3762 51.7041H41.2419L46.1078 25.5082Z" fill="#B28B67"/>
<path fill-rule="evenodd" clip-rule="evenodd" d="M53.6891 13.8754C54.2301 22.5805 55.6613 26.9331 57.9827 26.9331C61.4649 26.9331 64.4193 24.3797 65.9472 24.3797C67.061 24.3797 66.8123 25.9896 66.074 27.1833C65.4649 28.1681 62.4986 29.1173 62.4986 30.644C62.4986 32.1708 64.8423 30.9896 64.8423 31.8951C64.8423 33.3929 65.2541 36.209 63.0035 36.209C60.7258 36.209 54.1952 35.2503 53.0761 31.3457C52.3538 28.8257 51.8868 23.6039 51.6751 15.6803C51.5369 15.6613 51.3963 15.6515 51.2537 15.6515C49.3022 15.6515 47.7201 17.4789 47.7201 19.733C47.7201 20.8773 48.1278 21.9116 48.7846 22.6527C47.967 23.9857 47.0507 25.3782 46.0007 26.8151C42.0561 24.0815 39.1289 16.0794 42.9854 8.39223C44.0514 4.62641 46.4646 2.61494 49.3146 1.68095C51.6232 0.565502 54.0198 0.439734 56.0429 1.10843C60.0087 1.50134 63.5499 2.8981 64.5535 3.72761C64.5535 8.06428 63.826 9.35096 57.6122 9.23755C56.0854 10.1689 54.9116 11.7727 53.6891 13.8754Z" fill="#191847"/>
<path fill-rule="evenodd" clip-rule="evenodd" d="M79.2265 95.7114L94.6915 111.297C98.886 112.85 102.39 114.783 105.204 117.094C105.869 117.926 106.673 119.609 103.916 119.318C101.159 119.027 98.2494 118.892 97.869 120.182C97.4886 121.473 99.1569 123.016 98.388 124.757C97.8753 125.918 95.4534 123.007 91.1222 116.025L75.8078 107.309L79.2265 95.7114ZM19.8485 96.2493L29.9801 96.304C23.7243 124.019 20.3471 138.725 19.8485 140.42C18.7267 144.236 21.1007 150.047 22.1159 153.17C18.8094 155.201 19.1617 147.681 14.9906 150.344C11.1834 152.775 8.2873 157.179 3.88866 153.454C3.34787 152.996 2.75526 151.272 4.18709 149.925C7.7543 146.568 12.8949 140.693 13.5894 138.759C14.5366 136.122 16.623 121.952 19.8485 96.2493Z" fill="#B28B67"/>
<path fill-rule="evenodd" clip-rule="evenodd" d="M48.6407 37.9045L52.8331 36.9177C68.3879 55.3587 74.7768 90.786 93.8431 109.553L89.254 117.36C56.1774 111.74 47.9791 68.5267 48.6407 37.9045Z" fill="#E87613"/>
<path fill-rule="evenodd" clip-rule="evenodd" d="M30.3653 110.209C47.175 110.209 59.5399 110.209 67.4599 110.209C69.1549 110.209 68.8355 106.85 68.5905 105.155C65.7626 85.5927 54.7235 64.5056 54.7235 36.6593L44.0237 34.3566C35.1736 53.8909 32.113 77.9415 30.3653 110.209Z" fill="#DDE3E9"/>
<path fill-rule="evenodd" clip-rule="evenodd" d="M30.6634 53.5579C29.1094 52.9449 27.8788 51.5151 26.9715 49.2684C23.0607 39.5839 24.4731 34.2519 28.6525 32.4992C32.8319 30.7465 36.5591 34.3567 43.218 34.3567C43.5802 34.3567 43.9119 34.3879 44.2132 34.4502L47.5628 34.7125C57.1731 79.4124 59.8236 109.235 55.5142 124.182H26.3179C24.5881 129.717 22.9327 134.375 21.352 138.154H13.3965C12.6478 104.931 18.4034 76.7317 30.6634 53.5579Z" fill="#FF9B21"/>
<path fill-rule="evenodd" clip-rule="evenodd" d="M32.6757 101.225C33.5939 111.769 35.0863 119.421 37.1529 124.182H26.318C28.3358 117.724 30.455 110.072 32.6757 101.225V101.225Z" fill="black" fill-opacity="0.1"/>
</svg>
