<svg width="349" height="421" viewBox="0 0 349 421" fill="none" xmlns="http://www.w3.org/2000/svg">
<g clip-path="url(#clip0)">
<path d="M237.084 260.817C427.127 399.415 365.362 451.06 118.542 404.022C54.0513 391.732 0 339.907 0 260.817C0 181.727 53.073 117.612 118.542 117.612C184.011 117.612 176.777 216.835 237.084 260.817Z" fill="#364931"/>
<path opacity="0.1" d="M254.075 395.839C295.538 395.839 329.151 392.561 329.151 388.517C329.151 384.474 295.538 381.196 254.075 381.196C212.611 381.196 178.998 384.474 178.998 388.517C178.998 392.561 212.611 395.839 254.075 395.839Z" fill="black"/>
<path opacity="0.1" d="M106.007 154.502C127.984 154.502 145.8 151.224 145.8 147.18C145.8 143.136 127.984 139.858 106.007 139.858C84.0306 139.858 66.2148 143.136 66.2148 147.18C66.2148 151.224 84.0306 154.502 106.007 154.502Z" fill="black"/>
<path opacity="0.1" d="M103.922 165.204C86.8477 165.201 70.1213 170.462 55.6744 180.38C41.2275 190.298 29.6495 204.469 22.2778 221.255C30.7516 211.051 41.0951 202.898 52.64 197.324C64.1849 191.749 76.6744 188.877 89.3013 188.892C139.275 188.892 179.788 233.051 179.788 287.521C179.809 302.257 176.786 316.809 170.945 330.099C186.073 311.972 194.441 288.338 194.408 263.833C194.408 209.363 153.895 165.204 103.922 165.204Z" fill="black"/>
<path opacity="0.3" d="M179.788 287.09C179.809 301.826 176.786 316.379 170.945 329.668C162.471 339.872 152.128 348.025 140.583 353.599C129.038 359.174 116.549 362.046 103.922 362.031C53.9483 362.031 13.4347 317.872 13.4347 263.402C13.4143 248.666 16.4367 234.114 22.2779 220.824C30.7517 210.62 41.0952 202.468 52.6401 196.893C64.185 191.319 76.6744 188.446 89.3014 188.462C139.275 188.462 179.788 232.621 179.788 287.09Z" fill="#299167"/>
<path d="M103.922 362.515C53.7819 362.515 12.9901 318.053 12.9901 263.402C12.9536 248.592 15.9918 233.964 21.877 220.614C29.285 203.746 40.9199 189.506 55.4377 179.539C69.9556 169.572 86.7642 164.285 103.922 164.289C154.062 164.289 194.853 208.751 194.853 263.402C194.854 276.418 192.503 289.307 187.933 301.332C183.364 313.358 176.666 324.284 168.222 333.488C159.778 342.691 149.753 349.992 138.721 354.972C127.688 359.953 115.863 362.516 103.922 362.515ZM103.922 165.258C69.4693 165.258 37.5795 187.151 22.679 221.034C16.8513 234.252 13.843 248.737 13.8793 263.402C13.8793 317.519 54.2721 361.546 103.922 361.546C115.746 361.547 127.456 359.009 138.38 354.077C149.305 349.145 159.232 341.916 167.593 332.802C175.954 323.689 182.587 312.869 187.112 300.961C191.636 289.054 193.965 276.291 193.964 263.402C193.964 209.285 153.571 165.258 103.922 165.258V165.258Z" fill="white"/>
<path d="M310.94 363.768C304.368 373.136 305.119 385.797 305.119 385.797C305.119 385.797 316.526 383.269 323.098 373.901C329.67 364.532 328.919 351.871 328.919 351.871C328.919 351.871 317.512 354.399 310.94 363.768Z" fill="#D0CDE1"/>
<path d="M315.247 365.872C313.971 377.583 305.338 386.093 305.338 386.093C305.338 386.093 298.773 375.616 300.048 363.905C301.323 352.194 309.957 343.684 309.957 343.684C309.957 343.684 316.522 354.161 315.247 365.872Z" fill="#299167"/>
<path d="M76.8408 91.5385C97.462 91.5385 114.179 73.3176 114.179 50.8411C114.179 28.3645 97.462 10.1436 76.8408 10.1436C56.2197 10.1436 39.5029 28.3645 39.5029 50.8411C39.5029 73.3176 56.2197 91.5385 76.8408 91.5385Z" fill="black"/>
<path d="M157.792 92.3348C157.81 132.986 135.645 147.19 108.297 147.204C107.662 147.205 107.029 147.197 106.4 147.182C105.133 147.153 103.879 147.091 102.637 146.995C77.9542 145.104 58.7693 130.193 58.7524 92.3872C58.735 53.263 104.589 3.86465 108.028 0.212115C108.031 0.212115 108.031 0.212115 108.034 0.208795C108.164 0.06959 108.231 0 108.231 0C108.231 0 157.774 51.6867 157.792 92.3348Z" fill="#299167"/>
<path d="M106.492 140.987L124.591 113.395L106.448 144.015L106.4 147.182C105.133 147.153 103.879 147.091 102.638 146.995L104.571 106.326L104.555 106.012L104.589 105.952L104.772 102.109L86.5562 71.4322L104.826 99.2302L104.872 100.045L106.332 69.3181L90.7354 37.6162L106.521 63.9182L108.028 0.212115L108.034 0.000106812L108.034 0.208795L107.801 50.4476L123.302 30.5228L107.736 54.7742L107.338 82.2872L121.815 55.8765L107.282 86.3322L107.061 101.631L128.071 64.8675L106.981 106.968L106.492 140.987Z" fill="#39EC0D"/>
<path d="M254.742 115.626C249.996 106.885 240.606 106.477 240.606 106.477C240.606 106.477 231.456 105.202 225.587 118.515C220.116 130.923 212.566 142.903 224.371 145.808L226.504 138.574L227.824 146.347C229.505 146.478 231.191 146.51 232.875 146.441C245.518 145.996 257.559 146.571 257.171 141.626C256.656 135.052 259.308 124.036 254.742 115.626Z" fill="black"/>
<path d="M233.803 197.646L235.024 210.953L263.307 207.626L263.917 197.646H233.803Z" fill="#B78876"/>
<path d="M230.751 204.965L229.937 212.727C229.937 212.727 220.578 226.921 221.392 251.317C222.205 275.712 208.573 384.163 218.339 385.05C228.106 385.937 245.605 387.268 246.419 383.941C247.232 380.614 248.86 254.422 248.86 254.422C248.86 254.422 253.133 384.098 260.458 384.542C267.783 384.985 292.403 385.873 292.403 382.546C292.403 379.219 270.835 230.691 270.835 230.691L267.376 218.272L263.917 202.969C263.917 202.969 242.349 206.961 236.448 205.408C230.548 203.856 230.751 204.965 230.751 204.965Z" fill="black"/>
<path d="M240.518 143.532C247.71 143.532 253.54 137.177 253.54 129.338C253.54 121.499 247.71 115.144 240.518 115.144C233.326 115.144 227.496 121.499 227.496 129.338C227.496 137.177 233.326 143.532 240.518 143.532Z" fill="#B78876"/>
<path d="M263.306 152.847L260.834 156.768L259.251 159.276L256.592 163.492L243.366 164.601C243.366 164.601 240.153 163.47 236.446 161.818C235.077 161.205 233.638 160.522 232.271 159.797C226.966 156.989 222.71 153.563 227.495 151.294C228.345 150.896 229.161 150.418 229.935 149.866C230.639 149.365 231.294 148.786 231.89 148.14C233.116 146.801 234.024 145.157 234.535 143.349C235.045 141.541 235.143 139.624 234.82 137.766L247.639 135.77C247.267 139.314 250.5 143.179 254.124 146.335C255.314 147.375 256.549 148.336 257.711 149.183C260.757 151.405 263.306 152.847 263.306 152.847Z" fill="#B78876"/>
<path d="M245.808 157.06C245.808 157.06 233.294 154.732 230.446 149.853C230.446 149.853 218.136 151.516 219.153 158.613C220.17 165.71 230.344 204.521 230.344 204.521C230.344 204.521 255.778 199.199 265.138 203.191L270.835 153.734C270.835 153.734 268.8 148.855 264.934 150.185C261.068 151.516 259.542 150.296 259.542 150.296C259.542 150.296 255.168 157.06 245.808 157.06Z" fill="#39EC0D"/>
<path d="M257.202 234.905C257.202 234.905 265.952 245.55 261.068 247.325C256.185 249.099 250.284 240.228 250.284 240.228L257.202 234.905Z" fill="#B78876"/>
<path d="M260.051 235.792C260.051 235.792 252.93 241.115 255.575 244.663C258.22 248.212 267.376 241.558 267.376 240.228C267.376 238.897 260.051 235.792 260.051 235.792Z" fill="#B78876"/>
<path d="M242.552 206.961L236.652 208.07L232.786 176.799C233.009 171.126 232.837 165.442 232.271 159.797C231.84 156.027 231.119 152.403 229.935 149.866C230.639 149.364 231.294 148.786 231.89 148.14C233.307 150.587 235.891 155.767 236.446 161.818C236.591 163.333 236.592 164.86 236.448 166.375C235.431 176.799 235.634 178.795 235.634 178.795L242.552 206.961Z" fill="#2F2E41"/>
<path d="M228.92 151.738C228.92 151.738 219.357 148.855 218.543 155.064C217.729 161.274 218.747 177.242 220.985 183.23C223.223 189.218 230.955 208.735 230.955 208.735C230.955 208.735 244.994 228.252 245.605 232.909C246.215 237.566 249.267 242.446 249.267 242.446L259.034 235.57L239.908 200.307L231.565 175.912C231.565 175.912 235.024 153.734 228.92 151.738Z" fill="#39EC0D"/>
<path d="M266.359 152.625L270.835 153.734C270.835 153.734 274.905 172.807 273.277 183.009C271.649 193.21 271.445 196.759 271.445 196.759L270.021 225.812C270.021 225.812 270.428 244.442 267.58 241.558C264.731 238.675 259.034 237.345 259.034 237.345C259.034 237.345 259.644 229.139 261.882 227.143C261.882 227.143 264.527 211.84 262.9 205.187C261.272 198.533 266.359 152.625 266.359 152.625Z" fill="#39EC0D"/>
<path d="M267.987 174.137L262.798 206.85L259.644 205.408L265.138 174.137L259.251 159.276L254.124 146.335C255.314 147.375 256.549 148.336 257.711 149.183L260.835 156.768L267.987 174.137Z" fill="#2F2E41"/>
<path d="M252.643 114.783L243.367 109.487L230.556 111.653L227.906 124.413L234.503 124.136L236.347 119.448V124.059L239.391 123.931L241.158 116.468L242.262 124.413L253.085 124.172L252.643 114.783Z" fill="black"/>
<path d="M234.318 388.517C237.809 388.517 240.64 387.361 240.64 385.933C240.64 384.506 237.809 383.349 234.318 383.349C230.826 383.349 227.996 384.506 227.996 385.933C227.996 387.361 230.826 388.517 234.318 388.517Z" fill="#2F2E41"/>
<path d="M276.993 388.517C280.484 388.517 283.315 387.361 283.315 385.933C283.315 384.506 280.484 383.349 276.993 383.349C273.501 383.349 270.67 384.506 270.67 385.933C270.67 387.361 273.501 388.517 276.993 388.517Z" fill="#2F2E41"/>
<path d="M117.175 314.415C110.708 319.002 103.255 321.671 95.5525 322.161C87.8497 322.65 80.1631 320.941 73.2512 317.203L74.2298 315.028C82.5613 319.489 92.0044 320.851 101.114 318.906C110.223 316.961 118.497 311.816 124.668 304.258C130.84 296.701 134.569 287.147 135.285 277.06C136.001 266.972 133.665 256.907 128.634 248.404C123.603 239.902 116.154 233.43 107.428 229.981C98.7012 226.531 89.1782 226.294 80.3163 229.305C71.4544 232.315 63.7418 238.409 58.3591 246.652C52.9764 254.894 50.2202 264.833 50.5124 274.945L48.2903 275.02C48.0441 266.511 49.8483 258.08 53.5231 250.569C57.1978 243.057 62.6147 236.726 69.2339 232.207C75.853 227.688 83.4431 225.139 91.2477 224.814C99.0523 224.489 106.799 226.4 113.715 230.355C120.631 234.31 126.475 240.172 130.665 247.357C134.855 254.541 137.244 262.797 137.594 271.302C137.944 279.806 136.243 288.262 132.66 295.827C129.077 303.391 123.738 309.8 117.175 314.415Z" fill="white"/>
<path d="M97.0662 270.596C90.4925 272.182 81.7437 273.149 75.369 272.139L83.3715 278.782L60.9683 294.531L62.1732 296.567L84.5765 280.818L86.8286 291.506C88.6143 284.76 93.0306 276.471 97.0662 270.596Z" fill="white"/>
</g>
<defs>
<clipPath id="clip0">
<rect width="348.541" height="421" fill="white"/>
</clipPath>
</defs>
</svg>
